<svg width="42" height="42" viewBox="0 0 42 42" fill="none" xmlns="http://www.w3.org/2000/svg">
<path d="M8.62498 41.7925C8.44158 41.7899 8.26663 41.7153 8.13826 41.5849L0.489821 33.9184C0.424651 33.8541 0.372924 33.7776 0.337624 33.6932C0.302323 33.6089 0.284149 33.5185 0.284149 33.4271C0.284149 33.3358 0.302323 33.2454 0.337624 33.161C0.372924 33.0767 0.424651 33.0002 0.489821 32.9359L5.30138 28.1478C5.36602 28.0829 5.44292 28.0315 5.52765 27.9963C5.61239 27.9612 5.70327 27.9431 5.79506 27.9431C5.88685 27.9431 5.97773 27.9612 6.06246 27.9963C6.14719 28.0315 6.22409 28.0829 6.28873 28.1478L13.9928 35.8143C14.058 35.8786 14.1097 35.9551 14.145 36.0394C14.1803 36.1237 14.1985 36.2142 14.1985 36.3055C14.1985 36.3969 14.1803 36.4873 14.145 36.5716C14.1097 36.6559 14.058 36.7325 13.9928 36.7968L9.16732 41.5849C9.09732 41.6564 9.0126 41.7119 8.91898 41.7478C8.82537 41.7836 8.72507 41.7988 8.62498 41.7925ZM1.96388 33.4894L8.62498 40.118L12.5048 36.2571L5.84373 29.6285L1.96388 33.4894Z" fill="black"/>
<path d="M13.1167 36.6304C12.9333 36.6278 12.7583 36.5532 12.63 36.4228L6.28872 30.1125C6.15771 29.9848 6.08274 29.8107 6.08013 29.6282V27.3864C6.06381 26.3894 6.38187 25.4156 6.98403 24.6187C8.64844 22.4053 9.5507 19.7166 9.55669 16.9522C9.55669 16.6339 9.55669 16.3156 9.55669 15.9835V15.7759C9.5614 15.3377 9.6706 14.9069 9.87532 14.5189C10.08 14.1309 10.3744 13.7968 10.7342 13.5442C11.094 13.2915 11.509 13.1275 11.9449 13.0656C12.3809 13.0037 12.8254 13.0457 13.2418 13.1881L13.5895 13.3127C14.0759 13.4901 14.5029 13.7991 14.8223 14.205C15.1417 14.6108 15.3409 15.0974 15.3973 15.6099L15.5781 17.6164C15.5849 17.6716 15.5849 17.7274 15.5781 17.7825L15.0636 21.7956C15.0515 21.9615 15.0515 22.128 15.0636 22.2938C15.0641 22.9143 15.2118 23.526 15.4947 24.079C15.6602 24.4124 15.9418 24.6748 16.2871 24.8173C16.6323 24.9598 17.0178 24.9728 17.372 24.8539L18.0117 24.6325C18.8181 24.3596 19.5743 23.9577 20.2506 23.4424L23.3378 21.0345C24.3116 20.326 25.0092 19.3042 25.3125 18.1423V17.9624C25.5856 16.8157 26.2428 15.7957 27.1759 15.0702L27.2733 14.9871C28.3544 14.1865 29.6664 13.7545 31.014 13.7555H32.2656C32.3998 13.7543 32.5315 13.7919 32.6448 13.8635C32.758 13.9352 32.848 14.0379 32.9039 14.1594C32.9598 14.2808 32.9791 14.4158 32.9596 14.5479C32.9401 14.6801 32.8826 14.8038 32.794 14.9041L31.612 16.2879C30.5638 17.4987 29.8328 18.9486 29.4843 20.5087L29.2479 21.6019C28.9184 23.0438 28.2079 24.3719 27.1898 25.449L23.0179 29.9188C22.1016 30.8945 21.0642 31.7501 19.9308 32.4651L13.5339 36.5335C13.4085 36.6087 13.2625 36.6426 13.1167 36.6304ZM7.47075 29.3376L13.214 35.0528L19.1381 31.2888C20.16 30.6337 21.0945 29.8525 21.9193 28.9639L26.0912 24.4941C26.9365 23.5986 27.5268 22.4952 27.8017 21.2975L28.0937 20.2042C28.4998 18.4164 29.3455 16.7569 30.5551 15.3746L30.7498 15.1532C29.7949 15.1871 28.8712 15.4999 28.0937 16.0527L28.0103 16.1219C27.3426 16.6686 26.8816 17.425 26.7031 18.2668V18.4467C26.3464 19.9255 25.4866 21.2358 24.2695 22.1554L21.1406 24.5356C20.3415 25.1371 19.449 25.6046 18.4984 25.9195L17.8448 26.1409C17.1629 26.3964 16.4097 26.389 15.733 26.1201C15.0563 25.8513 14.505 25.3404 14.1875 24.6879C13.8107 23.9407 13.6154 23.1159 13.6173 22.28C13.6012 22.0542 13.6012 21.8276 13.6173 21.6019L14.1875 17.6718L13.9928 15.8036C13.9621 15.5498 13.8614 15.3095 13.7019 15.1092C13.5423 14.9089 13.3302 14.7565 13.0889 14.6689L12.7968 14.5443C12.5896 14.4746 12.3687 14.4546 12.1522 14.4858C11.9356 14.517 11.7296 14.5986 11.5507 14.724C11.3718 14.8494 11.2252 15.0151 11.1228 15.2075C11.0204 15.3999 10.965 15.6136 10.9612 15.8313V15.9835C10.9612 16.2879 10.9612 16.6616 10.9612 17.0075C10.9753 20.0636 10.0001 23.0429 8.17997 25.5043C7.7709 26.0471 7.55117 26.7079 7.55419 27.3864L7.47075 29.3376Z" fill="black"/>
<path d="M41.3047 11.3475H39.9141C39.7297 11.3475 39.5528 11.2746 39.4224 11.1448C39.292 11.015 39.2188 10.8391 39.2188 10.6555C39.2188 10.472 39.292 10.296 39.4224 10.1663C39.5528 10.0365 39.7297 9.96362 39.9141 9.96362H41.3047C41.4891 9.96362 41.666 10.0365 41.7963 10.1663C41.9267 10.296 42 10.472 42 10.6555C42 10.8391 41.9267 11.015 41.7963 11.1448C41.666 11.2746 41.4891 11.3475 41.3047 11.3475Z" fill="black"/>
<path d="M2.36719 11.3475H0.976562C0.792154 11.3475 0.615299 11.2746 0.484902 11.1448C0.354506 11.015 0.28125 10.8391 0.28125 10.6555C0.28125 10.472 0.354506 10.296 0.484902 10.1663C0.615299 10.0365 0.792154 9.96362 0.976562 9.96362H2.36719C2.5516 9.96362 2.72845 10.0365 2.85885 10.1663C2.98924 10.296 3.0625 10.472 3.0625 10.6555C3.0625 10.8391 2.98924 11.015 2.85885 11.1448C2.72845 11.2746 2.5516 11.3475 2.36719 11.3475Z" fill="black"/>
<path d="M37.1328 14.1151H5.14844C4.96503 14.1125 4.79009 14.0379 4.66172 13.9076L1.88047 11.1399C1.78518 11.0432 1.72051 10.9208 1.69448 10.7878C1.66845 10.6549 1.68219 10.5173 1.73401 10.392C1.78583 10.2668 1.87345 10.1594 1.98601 10.0833C2.09856 10.0071 2.2311 9.96553 2.36719 9.96362H39.9141C40.0501 9.96553 40.1827 10.0071 40.2952 10.0833C40.4078 10.1594 40.4954 10.2668 40.5472 10.392C40.5991 10.5173 40.6128 10.6549 40.5868 10.7878C40.5607 10.9208 40.4961 11.0432 40.4008 11.1399L37.6195 13.9076C37.4912 14.0379 37.3162 14.1125 37.1328 14.1151ZM5.44047 12.7313H36.8408L38.2314 11.3475H4.04984L5.44047 12.7313Z" fill="black"/>
<path d="M37.6056 11.3474H4.67564C4.55478 11.3477 4.43592 11.3167 4.33078 11.2574C4.22564 11.198 4.13786 11.1125 4.07609 11.0091C4.01432 10.9057 3.9807 10.7881 3.97854 10.6678C3.97637 10.5476 4.00575 10.4288 4.06376 10.3233C5.74091 7.27496 8.21118 4.73164 11.2157 2.95995C14.2202 1.18825 17.6483 0.253418 21.1406 0.253418C24.633 0.253418 28.0611 1.18825 31.0656 2.95995C34.0701 4.73164 36.5404 7.27496 38.2175 10.3233C38.2755 10.4288 38.3049 10.5476 38.3027 10.6678C38.3006 10.7881 38.267 10.9057 38.2052 11.0091C38.1434 11.1125 38.0556 11.198 37.9505 11.2574C37.8454 11.3167 37.7265 11.3477 37.6056 11.3474ZM5.84376 9.96354H36.4375C34.8091 7.39071 32.552 5.27058 29.8769 3.8012C27.2018 2.33182 24.1962 1.56113 21.1406 1.56113C18.0851 1.56113 15.0794 2.33182 12.4044 3.8012C9.72932 5.27058 7.47217 7.39071 5.84376 9.96354Z" fill="black"/>
</svg>
