<svg width="26" height="44" viewBox="0 0 26 44" fill="none" xmlns="http://www.w3.org/2000/svg">
<path d="M20.5333 9.77778H17.6V0.977778C17.6 0.44 17.16 0 16.6222 0H8.8C8.26222 0 7.82222 0.44 7.82222 0.977778V9.77778H4.88889C2.2 9.77778 0 11.9778 0 14.6667V36.1778C0 38.8667 2.2 41.0667 4.88889 41.0667H4.93778C4.88889 41.2133 4.88889 41.4089 4.88889 41.5556C4.88889 42.9244 5.96444 44 7.33333 44C8.70222 44 9.77778 42.9244 9.77778 41.5556C9.77778 41.4089 9.77778 41.2133 9.72889 41.0667H15.6933C15.6444 41.2133 15.6444 41.4089 15.6444 41.5556C15.6444 42.9244 16.72 44 18.0889 44C19.4578 44 20.5333 42.9244 20.5333 41.5556C20.5333 41.4089 20.5333 41.2133 20.4844 41.0667H20.5333C23.2222 41.0667 25.4222 38.8667 25.4222 36.1778V14.6667C25.4222 11.9778 23.2222 9.77778 20.5333 9.77778ZM9.77778 1.95556H15.6444V9.77778H9.77778V1.95556ZM8.8 15.5467L10.2667 17.0133V22.9778H7.33333V17.0133L8.8 15.5467ZM4.88889 11.7333H7.82222V13.7867L5.67111 15.9378C5.47555 16.1333 5.37778 16.3778 5.37778 16.6222V23.9556C5.37778 24.4933 5.81778 24.9333 6.35556 24.9333H11.2444C11.7822 24.9333 12.2222 24.4933 12.2222 23.9556V16.6222C12.2222 16.3778 12.1244 16.1333 11.9289 15.9378L9.77778 13.7867V11.7333H20.5333C22.1467 11.7333 23.4667 13.0533 23.4667 14.6667V33.2444H1.95556V14.6667C1.95556 13.0533 3.27556 11.7333 4.88889 11.7333ZM7.33333 42.0444C7.04 42.0444 6.84444 41.8489 6.84444 41.5556C6.84444 41.2622 7.04 41.0667 7.33333 41.0667C7.62667 41.0667 7.82222 41.2622 7.82222 41.5556C7.82222 41.8489 7.62667 42.0444 7.33333 42.0444ZM18.0889 42.0444C17.7956 42.0444 17.6 41.8489 17.6 41.5556C17.6 41.2622 17.7956 41.0667 18.0889 41.0667C18.3822 41.0667 18.5778 41.2622 18.5778 41.5556C18.5778 41.8489 18.3822 42.0444 18.0889 42.0444ZM20.5333 39.1111H4.88889C3.27556 39.1111 1.95556 37.7911 1.95556 36.1778V35.2H23.4667V36.1778C23.4667 37.7911 22.1467 39.1111 20.5333 39.1111ZM18.5778 8.31111C18.5778 7.77333 19.0178 7.33333 19.5556 7.33333H20.5333C21.0711 7.33333 21.5111 7.77333 21.5111 8.31111C21.5111 8.84889 21.0711 9.28889 20.5333 9.28889H19.5556C19.0178 9.28889 18.5778 8.84889 18.5778 8.31111Z" fill="black"/>
</svg>
