<svg width="43" height="46" viewBox="0 0 43 46" fill="none" xmlns="http://www.w3.org/2000/svg">
<path d="M35.171 21.6404C35.4825 20.6711 35.6472 19.6607 35.6596 18.6427C35.6566 16.0147 34.6114 13.4952 32.7531 11.637C30.8949 9.77874 28.3754 8.73346 25.7474 8.73047C24.3551 8.73226 22.9791 9.03016 21.7106 9.60439C20.4422 10.1786 19.3104 11.016 18.3904 12.0611H18.3326C16.1104 12.0589 13.9482 12.7816 12.174 14.1197C10.3999 15.4578 9.11069 17.3382 8.50213 19.4754H7.33633C6.44649 19.4744 5.56517 19.6487 4.74275 19.9885C3.92034 20.3283 3.17297 20.8268 2.54338 21.4557C1.91379 22.0845 1.41433 22.8312 1.07355 23.6532C0.732776 24.4753 0.557373 25.3564 0.557373 26.2462C0.557373 27.136 0.732776 28.0172 1.07355 28.8392C1.41433 29.6612 1.91379 30.4079 2.54338 31.0368C3.17297 31.6656 3.92034 32.1641 4.74275 32.5039C5.56517 32.8437 6.44649 33.018 7.33633 33.017C7.59886 33.017 7.85063 32.9127 8.03627 32.727C8.2219 32.5414 8.32619 32.2896 8.32619 32.0271C8.32619 31.7646 8.2219 31.5128 8.03627 31.3272C7.85063 31.1415 7.59886 31.0372 7.33633 31.0372C6.70658 31.0381 6.08283 30.9149 5.50076 30.6745C4.91869 30.4342 4.38972 30.0814 3.9441 29.6364C3.49848 29.1914 3.14496 28.663 2.90376 28.0812C2.66256 27.4995 2.5384 26.8759 2.5384 26.2462C2.5384 25.6165 2.66256 24.9929 2.90376 24.4112C3.14496 23.8294 3.49848 23.301 3.9441 22.856C4.38972 22.411 4.91869 22.0583 5.50076 21.8179C6.08283 21.5775 6.70658 21.4543 7.33633 21.4552H9.28417C9.51398 21.4553 9.73665 21.3753 9.91394 21.2291C10.0912 21.0828 10.212 20.8794 10.2557 20.6538C10.6276 18.7866 11.6363 17.1064 13.1094 15.9003C14.5826 14.6942 16.4287 14.037 18.3326 14.0408H18.8353C20.7303 14.044 22.5655 14.7052 24.0271 15.9114C25.4887 17.1175 26.4861 18.7938 26.849 20.6538L26.8504 20.6576V20.6596C26.9622 21.195 27.0189 21.7405 27.0196 22.2874V24.2986C27.0196 24.5611 27.1239 24.8129 27.3095 24.9985C27.4951 25.1842 27.7469 25.2885 28.0094 25.2885C28.272 25.2885 28.5237 25.1842 28.7094 24.9985C28.895 24.8129 28.9993 24.5611 28.9993 24.2986V22.2875C28.9993 22.0039 28.981 21.7307 28.9573 21.4552H30.2081C30.3887 21.4551 30.5691 21.4648 30.7487 21.4843C31.7258 21.5925 32.6458 21.9996 33.383 22.65C34.1114 23.2951 34.6264 24.1465 34.8596 25.0911C35.0928 26.0357 35.0332 27.0289 34.6888 27.9388C34.3443 28.8488 33.7313 29.6325 32.931 30.1859C32.1307 30.7392 31.1811 31.0362 30.2081 31.0372C29.9456 31.0372 29.6938 31.1415 29.5082 31.3272C29.3225 31.5128 29.2183 31.7646 29.2183 32.0271C29.2183 32.2896 29.3225 32.5414 29.5082 32.727C29.6938 32.9127 29.9456 33.017 30.2081 33.017C31.5258 33.017 32.8148 32.6326 33.9172 31.9109C35.0196 31.1891 35.8874 30.1613 36.4143 28.9536C36.9412 27.7458 37.1042 26.4106 36.8833 25.1116C36.6625 23.8126 36.0674 22.6062 35.171 21.6404ZM28.6035 19.4754C28.4872 19.07 28.3456 18.6722 28.1794 18.2844C28.15 18.2143 28.1224 18.1436 28.0914 18.0743C27.9287 17.7108 27.7447 17.3571 27.5402 17.0153C27.5003 16.9485 27.4579 16.884 27.4166 16.8182C27.2019 16.4725 26.9668 16.1401 26.7123 15.8226C26.7033 15.8115 26.6931 15.8015 26.6841 15.7904C26.4309 15.4845 26.1601 15.1936 25.873 14.9192C25.8205 14.8686 25.7698 14.8167 25.7162 14.7671C25.4286 14.5016 25.126 14.2529 24.8098 14.0221C24.7465 13.9758 24.6818 13.932 24.6173 13.8871C24.2881 13.6549 23.9454 13.4425 23.591 13.251C23.5696 13.2395 23.5471 13.2304 23.5255 13.2191C23.1777 13.0386 22.8197 12.8784 22.4533 12.7394C22.3869 12.7139 22.322 12.6862 22.2549 12.662C21.8799 12.5277 21.4972 12.4156 21.1089 12.3266C21.0734 12.3184 21.0401 12.3039 21.0045 12.296C22.1819 11.4123 23.5824 10.8742 25.0487 10.7421C26.5149 10.6101 27.989 10.8893 29.3054 11.5484C30.6218 12.2076 31.7285 13.2205 32.5012 14.4737C33.2739 15.7268 33.682 17.1705 33.6799 18.6427C33.6765 19.2054 33.6118 19.7662 33.487 20.315C33.2165 20.1664 32.936 20.0369 32.6475 19.9273C32.587 19.904 32.5241 19.8887 32.463 19.8672C32.1786 19.7675 31.8877 19.6873 31.5923 19.6271C31.496 19.6073 31.4004 19.5878 31.3029 19.5722C30.9411 19.5109 30.575 19.4786 30.2081 19.4754H28.6035Z" fill="black"/>
<path d="M25.9104 6.47713C26.1729 6.47713 26.4247 6.37284 26.6103 6.1872C26.796 6.00157 26.9003 5.74979 26.9003 5.48726V1.03918C26.9003 0.776653 26.796 0.524877 26.6103 0.339241C26.4247 0.153606 26.1729 0.0493164 25.9104 0.0493164C25.6479 0.0493164 25.3961 0.153606 25.2105 0.339241C25.0248 0.524877 24.9205 0.776653 24.9205 1.03918V5.48726C24.9205 5.74979 25.0248 6.00155 25.2105 6.18719C25.3961 6.37282 25.6479 6.47711 25.9104 6.47713Z" fill="black"/>
<path d="M16.9493 9.62033C17.135 9.80594 17.3867 9.91022 17.6492 9.91022C17.9117 9.91022 18.1635 9.80594 18.3491 9.62033C18.5347 9.43471 18.639 9.18296 18.639 8.92046C18.639 8.65796 18.5347 8.40621 18.3491 8.2206L15.204 5.07554C15.0184 4.88992 14.7667 4.78564 14.5042 4.78564C14.2417 4.78564 13.9899 4.88992 13.8043 5.07554C13.6187 5.26115 13.5144 5.5129 13.5144 5.7754C13.5144 6.0379 13.6187 6.28965 13.8043 6.47527L16.9493 9.62033Z" fill="black"/>
<path d="M42.0101 16.2417H37.562C37.2995 16.2417 37.0477 16.346 36.8621 16.5316C36.6764 16.7173 36.5721 16.969 36.5721 17.2316C36.5721 17.4941 36.6764 17.7459 36.8621 17.9315C37.0477 18.1171 37.2995 18.2214 37.562 18.2214H42.0101C42.2726 18.2214 42.5244 18.1171 42.7101 17.9315C42.8957 17.7459 43 17.4941 43 17.2316C43 16.969 42.8957 16.7173 42.7101 16.5316C42.5244 16.346 42.2726 16.2417 42.0101 16.2417Z" fill="black"/>
<path d="M34.4169 9.62225C34.5469 9.6224 34.6757 9.59685 34.7958 9.54708C34.9159 9.4973 35.025 9.42428 35.1168 9.33222L38.2619 6.1872C38.3538 6.09529 38.4267 5.98617 38.4764 5.86609C38.5262 5.746 38.5518 5.6173 38.5518 5.48732C38.5518 5.35734 38.5262 5.22863 38.4764 5.10855C38.4267 4.98846 38.3538 4.87935 38.2619 4.78744C38.17 4.69554 38.0608 4.62263 37.9408 4.57289C37.8207 4.52316 37.692 4.49756 37.562 4.49756C37.432 4.49756 37.3033 4.52316 37.1832 4.57291C37.0631 4.62265 36.954 4.69556 36.8621 4.78747L33.7171 7.93252C33.5787 8.07095 33.4844 8.24731 33.4463 8.4393C33.4081 8.63129 33.4277 8.83028 33.5026 9.01113C33.5775 9.19198 33.7043 9.34656 33.8671 9.45533C34.0298 9.5641 34.2212 9.62221 34.4169 9.62225Z" fill="black"/>
<path d="M12.9373 30.2892C12.8109 30.2582 12.6796 30.2524 12.551 30.2724C12.4224 30.2923 12.299 30.3375 12.1879 30.4053C12.0768 30.4732 11.9803 30.5623 11.9039 30.6677C11.8274 30.773 11.7726 30.8924 11.7425 31.019L9.6516 39.6813C9.59008 39.9364 9.63241 40.2055 9.76928 40.4294C9.90615 40.6533 10.1263 40.8136 10.3814 40.8752C10.4578 40.8939 10.5362 40.9033 10.6149 40.9032C10.8369 40.9029 11.0523 40.828 11.2266 40.6906C11.401 40.5531 11.5241 40.3611 11.5762 40.1453L13.6671 31.483C13.7286 31.2279 13.6863 30.9589 13.5494 30.735C13.4126 30.5111 13.1924 30.3507 12.9373 30.2892Z" fill="black"/>
<path d="M24.9171 30.2891C24.7907 30.2578 24.6594 30.2519 24.5307 30.2717C24.402 30.2916 24.2785 30.3367 24.1674 30.4046C24.0563 30.4725 23.9597 30.5617 23.8833 30.6672C23.8069 30.7726 23.7522 30.8922 23.7224 31.0189L21.6315 39.6812C21.5699 39.9363 21.6123 40.2054 21.7491 40.4293C21.886 40.6532 22.1062 40.8135 22.3613 40.8751C22.4377 40.8938 22.5161 40.9032 22.5947 40.9031C22.8167 40.9028 23.0322 40.8279 23.2065 40.6905C23.3808 40.553 23.5039 40.361 23.5561 40.1452L25.647 31.4829C25.7085 31.2278 25.6662 30.9587 25.5293 30.7349C25.3924 30.511 25.1722 30.3506 24.9171 30.2891Z" fill="black"/>
<path d="M20.2098 26.2086C19.9551 26.1463 19.686 26.1874 19.4615 26.3229C19.237 26.4584 19.0752 26.6772 19.0116 26.9316L14.8303 43.857C14.7673 44.1119 14.8082 44.3814 14.9439 44.6062C15.0796 44.8309 15.299 44.9926 15.5539 45.0556C15.6319 45.0747 15.7119 45.0845 15.7922 45.0846C16.0132 45.0844 16.2277 45.0102 16.4016 44.8739C16.5756 44.7376 16.699 44.5471 16.7521 44.3326L20.9334 27.4072C20.9964 27.1523 20.9555 26.8828 20.8198 26.658C20.6841 26.4332 20.4647 26.2716 20.2098 26.2086Z" fill="black"/>
</svg>
