<svg width="141" height="28" viewBox="0 0 141 28" fill="none" xmlns="http://www.w3.org/2000/svg">
<path d="M35.0954 2.13037C34.2762 2.13037 33.6166 2.78103 33.6166 3.5896V21.4039C33.6166 22.2125 34.2762 22.8632 35.0954 22.8632H46.4441C46.6584 22.8632 46.831 22.6929 46.831 22.4814V20.4379C46.831 20.2264 46.6584 20.056 46.4441 20.056H36.7939V13.5412H45.4712C45.6855 13.5412 45.858 13.3709 45.858 13.1594V11.2284C45.858 11.0168 45.6855 10.8466 45.4712 10.8466H36.7939V4.87164H46.4441C46.6584 4.87164 46.831 4.70141 46.831 4.48987V2.51215C46.831 2.3006 46.6584 2.13037 46.4441 2.13037H35.0954Z" fill="#191E3B"/>
<path d="M73.407 7.32056C70.7067 7.32056 69.03 8.23844 67.9073 9.76454V8.17014C67.9073 7.95859 67.7348 7.78826 67.5204 7.78826H65.1837C64.9693 7.78826 64.7968 7.95859 64.7968 8.17014V27.6183C64.7968 27.8298 64.9693 28.0001 65.1837 28.0001H67.5608C67.7751 28.0001 67.9477 27.8298 67.9477 27.6183V20.965C68.9893 22.4451 70.6771 23.3214 73.407 23.3214C77.9981 23.3213 80.8569 19.7347 80.8569 15.3163C80.8569 10.8978 78.0572 7.32056 73.407 7.32056ZM72.7403 9.89339C76.0433 9.89339 77.6684 12.3213 77.6684 15.3163C77.6684 18.3112 76.0433 20.7391 72.7403 20.7391C69.4372 20.7391 67.8121 18.3112 67.8122 15.3163C67.8121 12.3213 69.4372 9.89339 72.7403 9.89339Z" fill="#191E3B"/>
<path d="M119.517 7.78809H121.868C122.082 7.78809 122.255 7.95839 122.255 8.16994V22.4811C122.255 22.6927 122.082 22.863 121.868 22.863H119.517C119.303 22.863 119.131 22.6927 119.131 22.4811V8.16994C119.131 7.95839 119.303 7.78809 119.517 7.78809Z" fill="#191E3B"/>
<path d="M119.484 2.1228H121.902C122.116 2.1228 122.288 2.2931 122.288 2.50465V4.89103C122.288 5.10258 122.116 5.27288 121.902 5.27288H119.484C119.269 5.27288 119.097 5.10258 119.097 4.89103V2.50465C119.097 2.2931 119.269 2.1228 119.484 2.1228Z" fill="#191E3B"/>
<path d="M107.154 23.3214C109.854 23.3214 111.531 22.4035 112.654 20.8774V22.4813C112.654 22.6928 112.826 22.8632 113.04 22.8632H115.377C115.592 22.8632 115.764 22.6928 115.764 22.4813V2.51225C115.764 2.30071 115.592 2.13037 115.377 2.13037H113C112.786 2.13037 112.613 2.30071 112.613 2.51225V9.76163C111.495 8.31916 109.884 7.32057 107.154 7.32059C102.563 7.32063 99.704 10.9072 99.704 15.3257C99.704 19.7442 102.504 23.3214 107.154 23.3214ZM107.821 20.7486C104.518 20.7486 102.893 18.3207 102.893 15.3257C102.893 12.3307 104.518 9.90283 107.821 9.90283C111.124 9.90283 112.749 12.3307 112.749 15.3257C112.749 18.3207 111.124 20.7486 107.821 20.7486Z" fill="#191E3B"/>
<path d="M132.39 7.32983C127.739 7.32983 124.94 10.907 124.94 15.3255C124.94 19.744 127.739 23.3212 132.39 23.3212C135.09 23.3212 136.767 22.4033 137.889 20.8772V22.4811C137.889 22.6926 138.062 22.863 138.276 22.863H140.613C140.827 22.863 141 22.6926 141 22.4811V15.3255V8.16995C141 7.95841 140.827 7.78807 140.613 7.78807H138.276C138.062 7.78807 137.889 7.95841 137.889 8.16995V9.77382C136.767 8.24771 135.09 7.32983 132.39 7.32983ZM133.056 9.90265C136.359 9.90265 137.985 12.3306 137.985 15.3255C137.985 18.3205 136.359 20.7484 133.056 20.7484C129.753 20.7484 128.128 18.3205 128.128 15.3255C128.128 12.3306 129.753 9.90265 133.056 9.90265Z" fill="#191E3B"/>
<path d="M49.3336 7.78809C48.9996 7.78809 48.9398 8.04837 49.0914 8.25455L54.0653 14.9773L48.6061 22.3964C48.4544 22.6025 48.5143 22.863 48.8483 22.863H51.5415C51.7751 22.863 51.8965 22.7842 51.9741 22.6712L55.6941 17.2528L59.5686 22.6712C59.6484 22.7828 59.7676 22.863 60.0012 22.863H62.7974C63.1314 22.863 63.1918 22.6021 63.0396 22.3964L57.549 14.9773L62.4917 8.25455C62.6433 8.04838 62.5835 7.78809 62.2495 7.78809H59.609C59.3755 7.78809 59.2543 7.86686 59.1765 7.9798L55.9123 12.7148L52.5401 7.9798C52.4607 7.8679 52.3411 7.78809 52.1076 7.78809H49.3336Z" fill="#191E3B"/>
<path d="M90.2876 7.32056C85.6114 7.32056 82.7969 10.6392 82.7969 15.321C82.7969 20.4846 86.1236 23.3214 90.2876 23.3214C95.3196 23.3214 97.3032 20.4004 97.414 20.291C97.5415 20.1652 97.5068 19.9308 97.3997 19.8272L95.9453 18.4197C95.8381 18.3161 95.6343 18.3001 95.4932 18.4405C95.387 18.5462 93.6163 20.7553 90.7156 20.7553C87.6323 20.7553 86.1146 18.8909 85.9102 16.1443H97.3998C97.756 16.1443 97.7755 15.8316 97.7764 15.6264C97.8003 10.0502 94.5171 7.32056 90.2876 7.32056ZM90.2977 9.74704C93.126 9.74704 94.3107 11.4256 94.5606 13.8166H86.0219C86.3577 11.4727 87.6049 9.74704 90.2977 9.74704Z" fill="#191E3B"/>
<path d="M5.25748 0H20.1006C23.0132 0 25.3581 2.31436 25.3581 5.18915V19.8392C25.3581 22.714 23.0132 25.0284 20.1006 25.0284H5.25748C2.34484 25.0284 0 22.714 0 19.8392V5.18915C0 2.31436 2.34484 0 5.25748 0Z" fill="#FDDB32"/>
<path d="M7.09112 4.48096C6.85484 4.48097 6.70632 4.53456 6.58118 4.65806L4.04726 7.15905C4.0002 7.20549 3.97377 7.26852 3.97375 7.3342C3.97374 7.47093 4.08608 7.58178 4.22461 7.58178H15.2093L8.45619 14.247C8.32311 14.3784 8.24569 14.4548 8.2457 14.7125L8.24569 16.4662C8.2457 16.5724 8.29464 16.6645 8.36486 16.7338C8.43509 16.8031 8.52824 16.8513 8.63584 16.8513H10.4127C10.6739 16.8513 10.7512 16.775 10.8843 16.6437L17.6374 9.97833V20.8202C17.6374 20.957 17.7497 21.0678 17.8883 21.0678C17.9548 21.0678 18.0187 21.0417 18.0657 20.9953L20.5996 18.4943C20.7248 18.3708 20.7791 18.2242 20.7791 17.991L20.7791 6.15223C20.7791 5.93275 20.7353 5.71542 20.6501 5.51265C20.565 5.30988 20.4403 5.12564 20.2831 4.97044C20.1258 4.81525 19.9391 4.69215 19.7337 4.60816C19.5282 4.52418 19.3081 4.48095 19.0857 4.48096L7.09112 4.48096Z" fill="#191E3B"/>
<path d="M4.93895 17.3386H7.37633C7.58021 17.3386 7.74435 17.5006 7.74435 17.7019V20.1226C7.74435 20.3239 7.58021 20.4859 7.37633 20.4859H4.93895C4.73506 20.4859 4.57092 20.3239 4.57092 20.1226V17.7019C4.57092 17.5006 4.73506 17.3386 4.93895 17.3386Z" fill="#191E3B"/>
</svg>
