<svg width="188" height="40" viewBox="0 0 188 40" fill="none" xmlns="http://www.w3.org/2000/svg">
<path d="M186.943 26.5493C186.36 26.5493 185.886 27.0199 185.886 27.5992C185.886 28.1786 186.36 28.6491 186.943 28.6491C187.526 28.6491 188 28.1786 188 27.5992C188 27.0199 187.526 26.5493 186.943 26.5493ZM186.943 28.4826C186.451 28.4826 186.054 28.0853 186.054 27.5992C186.054 27.1109 186.454 26.7158 186.943 26.7158C187.434 26.7158 187.834 27.1131 187.834 27.5992C187.834 28.0853 187.434 28.4826 186.943 28.4826ZM187.287 27.4194C187.287 27.2285 187.151 27.1153 186.949 27.1153H186.612V28.072H186.777V27.7258H186.958L187.133 28.072H187.311L187.119 27.6903C187.222 27.6436 187.287 27.5503 187.287 27.4194ZM186.943 27.577H186.78V27.2597H186.943C187.055 27.2597 187.122 27.3151 187.122 27.4173C187.122 27.5216 187.052 27.577 186.943 27.577ZM59.61 15.9238V13.3845H55.6913V28.4915H59.61V19.4331C59.61 17.7928 60.669 16.987 62.3201 16.987H64.465V13.3845H62.6329C61.1985 13.3845 59.9519 14.1281 59.61 15.9238ZM68.1357 7.40918C66.7952 7.40918 65.7675 8.46132 65.7675 9.79311C65.7675 11.0938 66.7952 12.146 68.1357 12.146C69.4762 12.146 70.5039 11.0938 70.5039 9.79311C70.5039 8.46126 69.4762 7.40918 68.1357 7.40918ZM66.1808 28.4916H70.0906V13.3845H66.1808V28.4916ZM88.7147 20.938C88.7147 25.2508 85.1959 28.7468 80.8549 28.7468C79.1032 28.7468 77.5148 28.1764 76.2412 27.213V32.9265H72.3314V13.3845H76.2412V14.663C77.5148 13.6997 79.1032 13.1292 80.8549 13.1292C85.1959 13.1292 88.7147 16.6252 88.7147 20.938ZM84.7804 20.938C84.7804 18.5963 82.8679 16.6962 80.5108 16.6962C78.1537 16.6962 76.2413 18.5963 76.2413 20.938C76.2413 23.2798 78.1538 25.1798 80.5108 25.1798C82.8679 25.1798 84.7804 23.282 84.7804 20.938ZM156.67 19.6129L154.389 18.9914C152.887 18.6029 152.304 18.1457 152.304 17.3577C152.304 16.5897 153.126 16.0525 154.301 16.0525C155.421 16.0525 156.299 16.7806 156.299 17.7128V17.7993H159.903V17.7128C159.903 14.9715 157.653 13.1292 154.301 13.1292C150.984 13.1292 148.573 14.9693 148.573 17.5063C148.573 19.4796 149.889 20.9668 152.186 21.5838L154.371 22.1765C156.031 22.6337 156.647 23.1399 156.647 24.0477C156.647 25.0044 155.756 25.6481 154.429 25.6481C153.046 25.6481 152.114 24.7779 152.114 23.4861V23.3995H148.289V23.4861C148.289 26.5848 150.8 28.7512 154.398 28.7512C157.863 28.7512 160.378 26.6359 160.378 23.7236C160.378 22.2942 159.735 20.4253 156.67 19.6129ZM102.585 13.3845H106.494V28.4915H102.585V27.2129C101.311 28.1763 99.7225 28.7468 97.971 28.7468C93.63 28.7468 90.1112 25.2508 90.1112 20.9379C90.1112 16.6251 93.63 13.1292 97.971 13.1292C99.7225 13.1292 101.311 13.6996 102.585 14.6629V13.3845ZM102.585 20.938C102.585 18.594 100.672 16.6962 98.315 16.6962C95.9579 16.6962 94.0455 18.5963 94.0455 20.938C94.0455 23.2798 95.9579 25.1798 98.315 25.1798C100.674 25.1798 102.585 23.282 102.585 20.938ZM120.612 8.00848H124.522V28.4937H120.612V27.2152C119.339 28.1785 117.75 28.749 115.999 28.749C111.658 28.749 108.139 25.253 108.139 20.9402C108.139 16.6273 111.658 13.1314 115.999 13.1314C117.75 13.1314 119.339 13.7018 120.612 14.6652V8.00848ZM120.612 20.938C120.612 18.5963 118.7 16.6962 116.343 16.6962C113.986 16.6962 112.073 18.5963 112.073 20.938C112.073 23.2798 113.983 25.1798 116.343 25.1798C118.7 25.1798 120.612 23.282 120.612 20.938ZM142.675 28.4916H146.585V13.3845H142.675V28.4916ZM144.63 7.40918C143.289 7.40918 142.261 8.46132 142.261 9.79311C142.261 11.0938 143.289 12.146 144.63 12.146C145.97 12.146 146.998 11.0938 146.998 9.79311C146.998 8.46126 145.97 7.40918 144.63 7.40918ZM177.278 20.938C177.278 25.2508 173.759 28.7468 169.418 28.7468C165.077 28.7468 161.558 25.2508 161.558 20.938C161.558 16.6251 165.077 13.1292 169.418 13.1292C173.759 13.1292 177.278 16.6252 177.278 20.938ZM173.688 20.938C173.688 18.5963 171.775 16.6962 169.418 16.6962C167.061 16.6962 165.148 18.5963 165.148 20.938C165.148 23.2798 167.059 25.1798 169.418 25.1798C171.775 25.1798 173.688 23.282 173.688 20.938ZM57.6082 8.00848H42.6101V11.4734H48.1621V28.4915H52.0585V11.4734H57.6105V8.00848H57.6082ZM133.457 24.3541L129.978 13.3845H125.871L131.088 28.4916H135.793L141.042 13.3845H136.935L133.457 24.3541ZM183.006 15.9238V13.3845H179.087V28.4915H183.006V19.4331C183.006 17.7928 184.065 16.987 185.716 16.987H187.861V13.3845H186.029C184.595 13.3845 183.35 14.1281 183.006 15.9238Z" fill="black"/>
<path d="M19.9959 39.7319C31.0394 39.7319 39.9919 30.8376 39.9919 19.866C39.9919 8.89429 31.0394 0 19.9959 0C8.95248 0 0 8.89429 0 19.866C0 30.8376 8.95248 39.7319 19.9959 39.7319Z" fill="#34E0A1"/>
<path d="M32.3463 15.9904L34.7593 13.3823H29.4084C26.7296 11.5644 23.4945 10.5056 19.9958 10.5056C16.5015 10.5056 13.2754 11.5667 10.601 13.3823H5.23676L7.64968 15.9904C6.17067 17.3311 5.24348 19.2622 5.24348 21.4064C5.24348 25.4529 8.54564 28.7335 12.6186 28.7335C14.5534 28.7335 16.3161 27.9922 17.6321 26.7802L19.9958 29.3373L22.3596 26.7824C23.6755 27.9944 25.436 28.7335 27.3708 28.7335C31.4438 28.7335 34.7503 25.4529 34.7503 21.4064C34.7525 19.26 33.8254 17.3289 32.3463 15.9904ZM12.6207 26.3651C9.86373 26.3651 7.62961 24.1455 7.62961 21.4064C7.62961 18.6673 9.86379 16.4477 12.6207 16.4477C15.3777 16.4477 17.6119 18.6673 17.6119 21.4064C17.6119 24.1455 15.3777 26.3651 12.6207 26.3651ZM19.998 21.2621C19.998 17.9992 17.6097 15.198 14.4572 14.0016C16.1619 13.2935 18.0319 12.9006 19.9958 12.9006C21.9596 12.9006 23.8318 13.2935 25.5365 14.0016C22.3864 15.2002 19.998 17.9993 19.998 21.2621ZM27.3731 26.3651C24.6161 26.3651 22.3819 24.1455 22.3819 21.4064C22.3819 18.6673 24.6161 16.4477 27.3731 16.4477C30.1301 16.4477 32.3642 18.6673 32.3642 21.4064C32.3642 24.1455 30.13 26.3651 27.3731 26.3651ZM27.3731 18.8049C25.9275 18.8049 24.7568 19.968 24.7568 21.4042C24.7568 22.8403 25.9275 24.0034 27.3731 24.0034C28.8186 24.0034 29.9893 22.8403 29.9893 21.4042C29.9892 19.9703 28.8186 18.8049 27.3731 18.8049ZM15.237 21.4064C15.237 22.8425 14.0662 24.0056 12.6207 24.0056C11.1753 24.0056 10.0045 22.8425 10.0045 21.4064C10.0045 19.9703 11.1753 18.8072 12.6207 18.8072C14.0662 18.8049 15.237 19.9703 15.237 21.4064Z" fill="black"/>
</svg>
