<svg width="169" height="28" viewBox="0 0 169 28" fill="none" xmlns="http://www.w3.org/2000/svg">
<path d="M66.0118 2.56446C66.0118 1.14671 67.1561 0 68.5648 0C69.9782 0 71.127 1.14671 71.127 2.56446C71.127 3.98038 69.9782 5.12831 68.5648 5.12831C67.1561 5.12831 66.0118 3.98038 66.0118 2.56446Z" fill="#273B7D"/>
<path d="M106.37 19.6212C106.37 18.2029 107.513 17.0549 108.922 17.0549C110.335 17.0549 111.483 18.2029 111.483 19.6212C111.483 21.0359 110.335 22.1851 108.922 22.1851C107.513 22.1851 106.37 21.0359 106.37 19.6212Z" fill="#499FDD"/>
<path d="M24.0326 18.5142C21.8297 18.5142 20.2988 16.7647 20.2988 14.2646C20.2988 11.7652 21.8297 10.0169 24.0326 10.0169C26.2481 10.0169 27.7959 11.7652 27.7959 14.2646C27.7959 16.8042 26.2804 18.5142 24.0326 18.5142ZM24.0326 6.28198C19.372 6.28198 15.9897 9.64008 15.9897 14.2646C15.9897 18.8892 19.372 22.2467 24.0326 22.2467C28.7106 22.2467 32.1069 18.8892 32.1069 14.2646C32.1069 9.64008 28.7106 6.28198 24.0326 6.28198Z" fill="#273B7D"/>
<path d="M61.0584 14.6629C60.8773 14.322 60.6696 14.0333 60.4483 13.8042L60.3074 13.6547L60.4556 13.5125C60.6696 13.2871 60.8883 13.0197 61.0992 12.7098L65.212 6.59577H60.2193L57.1291 11.3783C56.9542 11.6348 56.601 11.7642 56.0723 11.7642H55.368V2.72233C55.368 0.913841 54.2413 0.667725 53.0242 0.667725H50.9404L50.944 22.0105H55.368V15.6085H55.7825C56.2868 15.6085 56.6302 15.6668 56.7877 15.9409L59.2282 20.5472C59.9099 21.7972 60.5893 22.0105 61.8673 22.0105H65.2576L62.7327 17.8338L61.0584 14.6629Z" fill="#273B7D"/>
<path d="M82.5352 6.2478C80.2849 6.2478 78.849 7.24745 78.0444 8.09275L77.7758 8.3644L77.681 7.99493C77.4447 7.08946 76.6479 6.59114 75.4489 6.59114H73.4662L73.4786 22.0059H77.8725V14.9013C77.8725 14.2068 77.9628 13.6039 78.1465 13.054C78.6356 11.3895 79.9999 10.3546 81.7051 10.3546C83.0767 10.3546 83.6127 11.0784 83.6127 12.9488V19.6626C83.6127 21.259 84.351 22.0059 85.9486 22.0059H88.0397L88.0325 12.202C88.0325 8.30667 86.1328 6.2478 82.5364 6.2478" fill="#273B7D"/>
<path d="M68.6232 6.59644H66.5405L66.5548 18.5151H66.5534V22.0081H68.7765C68.8044 22.0081 68.8269 22.0112 68.8548 22.0112L69.8903 22.0081H70.9209V22.0021H70.9281L70.937 8.93668C70.937 7.36032 70.1833 6.59646 68.6247 6.59646" fill="#273B7D"/>
<path d="M41.2911 18.5142C39.0884 18.5142 37.5545 16.7647 37.5545 14.2646C37.5545 11.7652 39.0884 10.0169 41.2911 10.0169C43.502 10.0169 45.054 11.7652 45.054 14.2646C45.054 16.8042 43.5391 18.5142 41.2911 18.5142ZM41.2911 6.28198C36.6259 6.28198 33.2429 9.64008 33.2429 14.2646C33.2429 18.8892 36.6259 22.2467 41.2911 22.2467C45.9643 22.2467 49.3661 18.8892 49.3661 14.2646C49.3661 9.64008 45.9643 6.28198 41.2911 6.28198Z" fill="#273B7D"/>
<path d="M135.475 18.5142C133.273 18.5142 131.738 16.7647 131.738 14.2646C131.738 11.7652 133.273 10.0169 135.475 10.0169C137.686 10.0169 139.239 11.7652 139.239 14.2646C139.239 16.8042 137.723 18.5142 135.475 18.5142ZM135.475 6.28198C130.811 6.28198 127.428 9.64008 127.428 14.2646C127.428 18.8892 130.811 22.2467 135.475 22.2467C140.149 22.2467 143.55 18.8892 143.55 14.2646C143.55 9.64008 140.149 6.28198 135.475 6.28198Z" fill="#499FDD"/>
<path d="M97.2973 17.8363C94.895 17.8363 94.04 15.7404 94.04 13.7763C94.04 12.911 94.2587 10.0907 97.0664 10.0907C98.4617 10.0907 100.321 10.4905 100.321 13.9216C100.321 17.1575 98.6756 17.8363 97.2973 17.8363ZM102.602 6.55696C101.769 6.55696 101.127 6.88936 100.805 7.49646L100.684 7.73223L100.48 7.55541C99.7711 6.94163 98.4994 6.21362 96.4344 6.21362C92.3257 6.21362 89.5596 9.29949 89.5596 13.8918C89.5596 18.4787 92.4217 21.6843 96.5171 21.6843C97.9159 21.6843 99.0213 21.3579 99.8976 20.6943L100.237 20.4397V20.8681C100.237 22.927 98.9052 24.0628 96.4916 24.0628C95.3186 24.0628 94.2509 23.7772 93.537 23.5183C92.6047 23.2369 92.0583 23.4697 91.6804 24.4049L91.3316 25.2678L90.8382 26.5282L91.1438 26.691C92.6886 27.5108 94.6994 28 96.5171 28C100.259 28 104.628 26.0846 104.628 20.6943L104.644 6.55696H102.603" fill="#273B7D"/>
<path d="M7.66839 18.3377L4.09159 18.3341V14.0578C4.09159 13.1438 4.44589 12.6686 5.22911 12.5592H7.66839C9.40941 12.5592 10.5343 13.6573 10.5355 15.4336C10.5343 17.2567 9.43738 18.3365 7.66839 18.3377ZM4.09159 6.80183V5.67638C4.09159 4.69132 4.50841 4.22279 5.4231 4.16262H7.25336C8.82302 4.16262 9.76318 5.10212 9.76318 6.67362C9.76318 7.87199 9.1196 9.27028 7.31107 9.27028H4.09159V6.80183ZM12.2365 11.0697L11.5899 10.7063L12.1544 10.2238C12.8108 9.65921 13.9112 8.39035 13.9112 6.19779C13.9112 2.84331 11.3091 0.678103 7.28186 0.678103H2.68599V0.676758H2.16265C0.968657 0.720524 0.0133595 1.6916 0 2.89302V21.9339H2.10921C2.11455 21.9352 2.11633 21.9339 2.11812 21.9352L7.3727 21.9339C11.8496 21.9339 14.7392 19.497 14.7392 15.7226C14.7392 13.6905 13.8052 11.9531 12.2356 11.0695" fill="#273B7D"/>
<path d="M163.178 6.29785C161.355 6.29785 159.592 7.15166 158.461 8.58337L158.142 8.98688L157.893 8.53536C157.079 7.05138 155.678 6.29785 153.731 6.29785C151.688 6.29785 150.318 7.43726 149.682 8.11484L149.266 8.56576L149.105 7.97264C148.873 7.11884 148.113 6.64847 146.962 6.64847H145.115L145.097 22.0037H149.293V15.2255C149.293 14.6318 149.367 14.0441 149.515 13.4297C149.917 11.792 151.017 10.0303 152.868 10.2065C154.009 10.3159 154.566 11.1977 154.566 12.901V22.0037H158.792V15.2255C158.792 14.4835 158.861 13.928 159.028 13.3708C159.369 11.8072 160.518 10.2041 162.303 10.2041C163.595 10.2041 164.073 10.9358 164.073 12.901V19.7588C164.073 21.3103 164.765 22.0037 166.315 22.0037H168.29L168.294 12.201C168.294 8.28501 166.57 6.29785 163.177 6.29785" fill="#499FDD"/>
<path d="M124.998 16.6724C124.986 16.6876 123.18 18.5915 120.803 18.5915C118.637 18.5915 116.449 17.2625 116.449 14.2958C116.449 11.7343 118.145 9.94407 120.574 9.94407C121.363 9.94407 122.26 10.2267 122.4 10.7019L122.421 10.7821C122.744 11.8595 123.723 11.9173 123.916 11.9173L126.214 11.9196V9.90999C126.214 7.25923 122.843 6.29785 120.574 6.29785C115.722 6.29785 112.202 9.67601 112.202 14.3279C112.202 18.978 115.684 22.3513 120.485 22.3513C124.651 22.3513 126.916 19.613 126.938 19.5857L127.058 19.4374L125.238 16.4172L124.998 16.6724Z" fill="#499FDD"/>
</svg>
