<svg width="19" height="15" viewBox="0 0 19 15" fill="none" xmlns="http://www.w3.org/2000/svg">
 <defs>
        <style>
            g {
                display: none;
            }
            g:target, g:target * {
                display: inline;
            }
        </style>
    </defs>
<g id="black">
<path d="M15.1762 0.9H4.51876C2.52294 0.9 0.9 2.52858 0.9 4.5296V10.4704C0.9 12.4718 2.52295 14.1 4.51876 14.1H15.1762C17.172 14.1 18.7949 12.4714 18.7949 10.4704V4.5296C18.7949 2.52858 17.172 0.9 15.1762 0.9ZM17.8727 10.4708C17.8727 11.964 16.6626 13.1781 15.1762 13.1781H4.51876C3.03237 13.1781 1.82224 11.9637 1.82224 10.4708V4.5296C1.82224 3.03669 3.03237 1.82224 4.51876 1.82224H15.1762C16.6626 1.82224 17.8727 3.03669 17.8727 4.5296V10.4708Z" fill="black" stroke="black" stroke-width="0.2"/>
<path d="M8.09419 4.3527L8.09427 4.35275L13.0974 7.28315L8.09419 4.3527ZM8.09419 4.3527C7.95224 4.26974 7.77574 4.26829 7.63221 4.35044C7.48876 4.43255 7.40024 4.58521 7.40024 4.75069V10.6113C7.40024 10.7763 7.48867 10.9293 7.63173 11.0115L7.63191 11.0116M8.09419 4.3527L7.63191 11.0116M7.63191 11.0116C7.70296 11.0522 7.78222 11.0724 7.86137 11.0724C7.94216 11.0724 8.0224 11.0512 8.09412 11.0093L8.09426 11.0093M7.63191 11.0116L8.09426 11.0093M8.09426 11.0093L13.0976 8.07951M8.09426 11.0093L13.0976 8.07951M13.0976 8.07951C13.2387 7.99695 13.3258 7.8453 13.3258 7.68154C13.3258 7.51813 13.2393 7.36597 13.0976 7.28325L13.0976 8.07951ZM8.32249 9.80672V5.55495L11.9522 7.68117L8.32249 9.80672Z" fill="black" stroke="black" stroke-width="0.2"/>
</g>
<g id="green">
<path d="M15.1762 0.9H4.51876C2.52294 0.9 0.9 2.52858 0.9 4.5296V10.4704C0.9 12.4718 2.52295 14.1 4.51876 14.1H15.1762C17.172 14.1 18.7949 12.4714 18.7949 10.4704V4.5296C18.7949 2.52858 17.172 0.9 15.1762 0.9ZM17.8727 10.4708C17.8727 11.964 16.6626 13.1781 15.1762 13.1781H4.51876C3.03237 13.1781 1.82224 11.9637 1.82224 10.4708V4.5296C1.82224 3.03669 3.03237 1.82224 4.51876 1.82224H15.1762C16.6626 1.82224 17.8727 3.03669 17.8727 4.5296V10.4708Z" fill="#CBFBD5" stroke="#CBFBD5" stroke-width="0.2"/>
<path d="M8.09419 4.3527L8.09427 4.35275L13.0974 7.28315L8.09419 4.3527ZM8.09419 4.3527C7.95224 4.26974 7.77574 4.26829 7.63221 4.35044C7.48876 4.43255 7.40024 4.58521 7.40024 4.75069V10.6113C7.40024 10.7763 7.48867 10.9293 7.63173 11.0115L7.63191 11.0116M8.09419 4.3527L7.63191 11.0116M7.63191 11.0116C7.70296 11.0522 7.78222 11.0724 7.86137 11.0724C7.94216 11.0724 8.0224 11.0512 8.09412 11.0093L8.09426 11.0093M7.63191 11.0116L8.09426 11.0093M8.09426 11.0093L13.0976 8.07951M8.09426 11.0093L13.0976 8.07951M13.0976 8.07951C13.2387 7.99695 13.3258 7.8453 13.3258 7.68154C13.3258 7.51813 13.2393 7.36597 13.0976 7.28325L13.0976 8.07951ZM8.32249 9.80672V5.55495L11.9522 7.68117L8.32249 9.80672Z" fill="#CBFBD5" stroke="#CBFBD5" stroke-width="0.2"/>
</g>
</svg>
