<svg width="13" height="13" viewBox="0 0 13 13" fill="none" xmlns="http://www.w3.org/2000/svg">
 <defs>
        <style>
            g {
                display: none;
            }
            g:target, g:target * {
                display: inline;
            }
        </style>
    </defs>
<g id="black">
<path d="M3.76271 0C1.68754 0 0 1.6926 0 3.77284V9.2281C0 11.3083 1.68754 13 3.76271 13H9.23728C11.3124 13 13 11.3083 13 9.2281V3.77284C13 1.6926 11.3124 0 9.23728 0H3.76271V0ZM3.76271 1.11758H9.23728C10.7142 1.11758 11.8861 2.29232 11.8861 3.77284V9.2281C11.8861 10.7086 10.7142 11.8824 9.23728 11.8824H3.76271C2.28578 11.8824 1.11484 10.7086 1.11484 9.2281V3.77284C1.11484 2.29232 2.28578 1.11758 3.76271 1.11758ZM9.98889 2.23514C9.55825 2.23514 9.20934 2.5849 9.20934 3.01659C9.20934 3.4483 9.55825 3.79805 9.98889 3.79805C10.4195 3.79805 10.7684 3.4483 10.7684 3.01659C10.7684 2.5849 10.4195 2.23514 9.98889 2.23514ZM6.5 3.1529C4.66244 3.1529 3.16106 4.65796 3.16106 6.5C3.16106 8.34205 4.66244 9.8471 6.5 9.8471C8.33756 9.8471 9.83988 8.34205 9.83988 6.5C9.83988 4.65796 8.33756 3.1529 6.5 3.1529ZM6.5 4.27047C7.73516 4.27047 8.72503 5.26183 8.72503 6.5C8.72503 7.73817 7.73516 8.72953 6.5 8.72953C5.26484 8.72953 4.27589 7.73817 4.27589 6.5C4.27589 5.26183 5.26484 4.27047 6.5 4.27047Z" fill="black"/>
</g>
<g id="green">
<path d="M3.76271 0C1.68754 0 0 1.6926 0 3.77284V9.2281C0 11.3083 1.68754 13 3.76271 13H9.23728C11.3124 13 13 11.3083 13 9.2281V3.77284C13 1.6926 11.3124 0 9.23728 0H3.76271V0ZM3.76271 1.11758H9.23728C10.7142 1.11758 11.8861 2.29232 11.8861 3.77284V9.2281C11.8861 10.7086 10.7142 11.8824 9.23728 11.8824H3.76271C2.28578 11.8824 1.11484 10.7086 1.11484 9.2281V3.77284C1.11484 2.29232 2.28578 1.11758 3.76271 1.11758ZM9.98889 2.23514C9.55825 2.23514 9.20934 2.5849 9.20934 3.01659C9.20934 3.4483 9.55825 3.79805 9.98889 3.79805C10.4195 3.79805 10.7684 3.4483 10.7684 3.01659C10.7684 2.5849 10.4195 2.23514 9.98889 2.23514ZM6.5 3.1529C4.66244 3.1529 3.16106 4.65796 3.16106 6.5C3.16106 8.34205 4.66244 9.8471 6.5 9.8471C8.33756 9.8471 9.83988 8.34205 9.83988 6.5C9.83988 4.65796 8.33756 3.1529 6.5 3.1529ZM6.5 4.27047C7.73516 4.27047 8.72503 5.26183 8.72503 6.5C8.72503 7.73817 7.73516 8.72953 6.5 8.72953C5.26484 8.72953 4.27589 7.73817 4.27589 6.5C4.27589 5.26183 5.26484 4.27047 6.5 4.27047Z" fill="#CBFBD5"/>
</g>
</svg>
