<svg width="8" height="13" viewBox="0 0 8 13" fill="none" xmlns="http://www.w3.org/2000/svg">
    <defs>
        <style>
            g {
                display: none;
            }
            g:target, g:target * {
                display: inline;
            }
        </style>
    </defs>
<g id="black">
<path d="M4.87752 4.85498H7.31628V7.28247H4.87752V12.9466H2.43876V7.28247H0V4.85498H2.43876V3.83948C2.43876 2.87738 2.74279 1.66202 3.34761 0.997698C3.95242 0.331757 4.70762 0 5.6124 0H7.31628V2.42749H5.60915C5.20432 2.42749 4.87752 2.75277 4.87752 3.15493V4.85498Z" fill="black"/>
</g>
<g id="green">
<path d="M4.87752 4.85498H7.31628V7.28247H4.87752V12.9466H2.43876V7.28247H0V4.85498H2.43876V3.83948C2.43876 2.87738 2.74279 1.66202 3.34761 0.997698C3.95242 0.331757 4.70762 0 5.6124 0H7.31628V2.42749H5.60915C5.20432 2.42749 4.87752 2.75277 4.87752 3.15493V4.85498Z" fill="#CBFBD5"/>
</g>
</svg>
