<svg width="760" height="2083" viewBox="0 0 760 2083" fill="none" xmlns="http://www.w3.org/2000/svg">
<path d="M200 12.7H312C345.137 12.7 372 39.5629 372 72.7V288.7" stroke="#78D98F" stroke-width="8" stroke-linejoin="round"/>
<path d="M220 1566.7H332C365.137 1566.7 392 1593.56 392 1626.7V1842.7" stroke="#78D98F" stroke-width="8"/>
<path d="M372 288.7L372 341.7C372 374.837 398.863 401.7 432 401.7L564 401.7" stroke="#78D98F" stroke-width="8"/>
<path d="M587 514.7L534 514.7C500.863 514.7 474 541.563 474 574.7L474 837.7" stroke="#78D98F" stroke-width="8"/>
<path d="M464 1104.7L411 1104.7C377.863 1104.7 351 1131.56 351 1164.7L351 1366.7" stroke="#78D98F" stroke-width="8"/>
<path d="M361 925.7L414 925.7C447.137 925.7 474 898.837 474 865.7V825.7" stroke="#78D98F" stroke-width="8"/>
<path d="M238 1453.7L291 1453.7C324.137 1453.7 351 1426.84 351 1393.7V1353.7" stroke="#78D98F" stroke-width="8"/>
<path d="M540 401.7H699.5C730.704 401.7 756 426.996 756 458.2V458.2C756 489.404 730.704 514.7 699.5 514.7H587" stroke="#78D98F" stroke-width="8"/>
<path d="M220 1566.7L60.5 1566.7C29.2959 1566.7 4 1541.4 4 1510.2V1510.2C4.00001 1479 29.2959 1453.7 60.5 1453.7L245 1453.7" stroke="#78D98F" stroke-width="8"/>
<path d="M372 991.7H531.5C562.704 991.7 588 1017 588 1048.2V1048.2C588 1079.4 562.704 1104.7 531.5 1104.7H461" stroke="#78D98F" stroke-width="8"/>
<path d="M504.5 1785.2L504.5 2021.7C504.5 2052.9 479.204 2078.2 448 2078.2V2078.2C416.796 2078.2 391.5 2052.9 391.5 2021.7L391.5 1831.2" stroke="#78D98F" stroke-width="8"/>
<path d="M374 991.7L191 991.7C172.775 991.7 158 976.925 158 958.7V958.7C158 940.475 172.775 925.7 191 925.7L374 925.7" stroke="#78D98F" stroke-width="8"/>
<circle cx="177" cy="10.7" r="10" fill="black"/>
<circle cx="504" cy="1755.7" r="10" fill="black"/>
</svg>
