<svg width="62" height="67" viewBox="0 0 62 67" fill="none" xmlns="http://www.w3.org/2000/svg">
<path fill-rule="evenodd" clip-rule="evenodd" d="M53.7849 30.932C53.7849 45.1255 42.1179 54.4877 27.9007 64.3126C13.6834 54.4877 2.01674 45.1255 2.01674 30.932V10.5943C2.03499 10.579 2.07919 10.5501 2.15428 10.5331C9.55292 8.88239 18.3803 6.59219 27.9007 2.12326C34.5024 5.22557 41.113 7.50727 49.5278 9.57123C46.8978 11.0603 44.2553 12.7442 41.6834 14.5802C41.6625 14.5947 41.6419 14.6099 41.621 14.6244C37.8193 11.2967 32.9803 9.47257 27.9007 9.47257C16.4048 9.47257 7.0521 18.8246 7.0521 30.3206C7.0521 41.8165 16.4048 51.1694 27.9007 51.1694C39.3966 51.1694 48.7488 41.8165 48.7488 30.3206C48.7488 26.8126 47.8669 23.3701 46.1936 20.3146C48.585 17.7812 51.1257 15.2648 53.7849 12.83V30.932ZM15.4005 33.0734C15.1159 32.7749 15.0415 32.3344 15.2124 31.9593L18.7873 24.1108C19.0738 23.4818 19.896 23.3221 20.3974 23.7962L26.05 29.1376C29.6354 24.5598 34.3958 20.0092 39.949 15.8482C36.57 13.0299 32.3368 11.4889 27.9007 11.4889C17.5166 11.4889 9.06887 19.937 9.06887 30.3206C9.06887 40.705 17.5166 49.1531 27.9007 49.1531C38.2847 49.1531 46.7324 40.705 46.7324 30.3206C46.7324 27.3781 46.0451 24.4867 44.7373 21.8793C37.1752 30.1173 31.2525 38.3766 28.0203 44.3839C27.6943 44.9907 26.8735 45.0954 26.4028 44.6033L15.4005 33.0734ZM26.9147 42.2179C32.0438 33.1933 42.4627 19.9208 55.1748 8.89005C44.546 13.9543 33.3945 22.6744 26.9775 31.2424C26.6172 31.7237 25.915 31.7846 25.4779 31.3708L20.0376 26.2309L17.3302 32.1745L26.9147 42.2179ZM61.8788 4.93135C61.645 4.49765 61.1321 4.29609 60.666 4.45596C57.9686 5.3761 55.1024 6.62283 52.1854 8.13231C42.6593 5.91784 35.5069 3.50688 28.3335 0.09757C28.0595 -0.0325233 27.7419 -0.0325233 27.4678 0.09757C17.9631 4.61498 9.11575 6.91367 1.71478 8.56518C0.689292 8.79394 0 9.6027 0 10.5781V30.932C0 47.2167 14.4748 57.5024 27.3286 66.3672C27.6724 66.6043 28.1292 66.6044 28.4727 66.3672C41.3258 57.4932 55.8014 47.2269 55.8014 30.932V11.0195C57.6878 9.36034 59.6272 7.74792 61.6104 6.20612C61.9994 5.90336 62.113 5.3642 61.8788 4.93135Z" fill="#5B8265"/>
</svg>
