<svg width="62" height="64" viewBox="0 0 62 64" fill="none" xmlns="http://www.w3.org/2000/svg">
<path fill-rule="evenodd" clip-rule="evenodd" d="M24.3798 5.34056C21.1943 6.41107 19.0428 6.42938 15.8376 6.63432L16.3088 9.49792C16.9741 13.505 18.5187 17.315 20.8316 20.6541C23.1445 23.9932 26.1684 26.7785 29.6858 28.8099L31 29.5706L32.3142 28.8099C35.8315 26.7784 38.8552 23.993 41.168 20.6539C43.4808 17.3148 45.0253 13.5049 45.6905 9.49792L46.1617 6.63432C42.9565 6.42938 40.805 6.41107 37.6195 5.34056C35.7939 4.72725 34.0562 3.87848 32.4501 2.81573L31 1.85298L29.5499 2.81573C27.944 3.87921 26.2062 4.7287 24.3805 5.34268L24.3798 5.34056ZM18.6258 4.76869C22.1947 4.54417 25.6417 3.38488 28.6209 1.40717L30.5352 0.139467C30.6756 0.0469534 30.8403 -0.00159114 31.0084 3.9786e-05C31.1765 0.00167071 31.3404 0.053403 31.4789 0.148622L33.3791 1.40717C36.3583 3.38401 39.805 4.54256 43.3735 4.76658L47.1984 5.01307C47.3187 5.02076 47.436 5.05409 47.5424 5.11084C47.6487 5.1676 47.7417 5.24645 47.8151 5.34211C47.8885 5.43777 47.9406 5.54802 47.9678 5.66546C47.9951 5.7829 47.9969 5.90481 47.9731 6.02301L47.3569 9.76766C46.6508 14.021 45.0113 18.0651 42.5563 21.6094C40.1012 25.1537 36.8915 28.1102 33.1579 30.2664L31.4226 31.2686C31.2928 31.344 31.1451 31.3833 30.995 31.3823C30.8449 31.3814 30.6978 31.3401 30.569 31.2629L28.8428 30.2643C25.1103 28.1077 21.9018 25.1513 19.4476 21.6075C16.9935 18.0636 15.3546 14.0202 14.6488 9.76766L14.0269 5.9885C14.0086 5.87287 14.0146 5.75472 14.0444 5.64152C14.0742 5.52833 14.1272 5.42256 14.2001 5.33092C14.2729 5.23929 14.364 5.16378 14.4675 5.10918C14.5711 5.05459 14.6848 5.0221 14.8016 5.01378L18.6237 4.76869H18.6258ZM36.0638 9.88105C37.0655 10.8826 37.7477 12.1587 38.0241 13.548C38.3005 14.9373 38.1588 16.3773 37.6168 17.6861C37.0747 18.9948 36.1568 20.1134 34.979 20.9004C33.8012 21.6874 32.4165 22.1074 31 22.1074C29.5835 22.1074 28.1988 21.6874 27.021 20.9004C25.8432 20.1134 24.9253 18.9948 24.3832 17.6861C23.8412 16.3773 23.6995 14.9373 23.9759 13.548C24.2523 12.1587 24.9345 10.8826 25.9362 9.88105C27.2793 8.53819 29.1008 7.7838 31 7.7838C32.8992 7.7838 34.7207 8.53819 36.0638 9.88105ZM31 6.09625C32.7502 6.09611 34.4612 6.615 35.9166 7.58728C37.3719 8.55956 38.5063 9.94158 39.1762 11.5586C39.846 13.1755 40.0214 14.9549 39.68 16.6715C39.3386 18.3881 38.4959 19.965 37.2583 21.2026C36.0208 22.4403 34.444 23.2832 32.7274 23.6247C31.0108 23.9662 29.2314 23.791 27.6144 23.1212C25.9974 22.4515 24.6153 21.3172 23.6429 19.862C22.6705 18.4067 22.1514 16.6958 22.1514 14.9455C22.1514 12.5987 23.0837 10.3479 24.7431 8.68839C26.4025 7.02885 28.6532 6.09644 31 6.09625ZM26.4877 15.1209C26.4009 15.0499 26.3291 14.9623 26.2766 14.8632C26.2241 14.7641 26.192 14.6555 26.1821 14.5438C26.1721 14.4321 26.1846 14.3196 26.2188 14.2128C26.253 14.106 26.3081 14.0071 26.3811 13.9219C26.454 13.8367 26.5432 13.767 26.6435 13.7168C26.7437 13.6666 26.853 13.6369 26.9649 13.6295C27.0768 13.6221 27.189 13.6372 27.295 13.6738C27.401 13.7104 27.4986 13.7678 27.5821 13.8426L29.895 15.8146L34.4545 12.3235C34.6319 12.1881 34.8559 12.1287 35.0771 12.1584C35.2984 12.1881 35.4987 12.3045 35.6342 12.4819C35.7696 12.6594 35.829 12.8834 35.7992 13.1046C35.7695 13.3258 35.6531 13.5262 35.4757 13.6616L30.3774 17.569C30.2242 17.6848 30.036 17.745 29.844 17.7397C29.652 17.7343 29.4675 17.6636 29.321 17.5394L26.4891 15.1223L26.4877 15.1209ZM6.85804 42.306C6.85724 42.1676 6.80852 42.0338 6.72016 41.9273C6.63181 41.8208 6.50928 41.7482 6.37342 41.7218C6.23757 41.6954 6.09677 41.717 5.975 41.7827C5.85323 41.8485 5.75799 41.9544 5.7055 42.0824C5.65301 42.2105 5.64651 42.3528 5.6871 42.4851C5.72769 42.6174 5.81286 42.7315 5.92813 42.8081C6.0434 42.8847 6.18164 42.919 6.31934 42.9051C6.45703 42.8913 6.58567 42.8301 6.68337 42.7321C6.73914 42.6761 6.78329 42.6096 6.81326 42.5365C6.84324 42.4634 6.85845 42.3851 6.85804 42.306ZM7.86656 40.6932C8.18641 41.0112 8.40478 41.417 8.49404 41.8591C8.58331 42.3012 8.53946 42.7599 8.36805 43.1771C8.19664 43.5943 7.90536 43.9513 7.53105 44.2029C7.15674 44.4546 6.71621 44.5896 6.26517 44.5908C5.81413 44.5921 5.37284 44.4596 4.99711 44.2101C4.62138 43.9606 4.32808 43.6052 4.1543 43.189C3.98052 42.7728 3.93407 42.3144 4.02082 41.8718C4.10757 41.4292 4.32363 41.0222 4.64167 40.7024C5.06839 40.2741 5.64762 40.0325 6.25222 40.0308C6.85683 40.0291 7.43742 40.2673 7.86656 40.6932ZM16.1066 30.0107C16.2565 30.0983 16.3659 30.2415 16.4111 30.4091C16.4564 30.5768 16.4337 30.7555 16.3482 30.9066L7.22285 46.8036C7.13511 46.9537 6.99174 47.0633 6.8238 47.1085C6.65587 47.1537 6.47688 47.1309 6.3256 47.0451L2.0119 44.5717C1.86224 44.484 1.75318 44.3409 1.70836 44.1733C1.66354 44.0057 1.68656 43.8273 1.77244 43.6766L10.8957 27.7782C10.9833 27.6279 11.1266 27.5182 11.2946 27.4728C11.4625 27.4275 11.6416 27.4502 11.7929 27.5359L16.1059 30.0086L16.1066 30.0107ZM18.323 33.8357L17.0327 33.0997L9.46246 46.2866L10.7513 47.0254L18.323 33.8357ZM53.4665 42.3039C53.4673 41.853 53.6018 41.4125 53.853 41.0381C54.1042 40.6636 54.4608 40.3721 54.8777 40.2003C55.2946 40.0285 55.7531 39.9842 56.1951 40.073C56.6372 40.1618 57.043 40.3797 57.3612 40.6991C57.6795 41.0185 57.8959 41.4251 57.983 41.8675C58.0701 42.3099 58.0241 42.7682 57.8508 43.1845C57.6775 43.6007 57.3846 43.9562 57.0093 44.206C56.6339 44.4558 56.1929 44.5887 55.742 44.5879C55.1376 44.586 54.5586 44.3445 54.132 43.9164C53.7055 43.4882 53.4661 42.9083 53.4665 42.3039ZM55.3244 41.8813C55.2184 41.9946 55.1606 42.1447 55.1632 42.2998C55.1658 42.4549 55.2285 42.6029 55.3382 42.7126C55.4479 42.8223 55.596 42.8851 55.7511 42.8877C55.9062 42.8903 56.0562 42.8325 56.1695 42.7265C56.2755 42.6132 56.3333 42.4632 56.3307 42.308C56.3281 42.1529 56.2653 42.0049 56.1556 41.8952C56.046 41.7855 55.8979 41.7227 55.7428 41.7202C55.5877 41.7176 55.4377 41.7754 55.3244 41.8813ZM50.2071 27.5359C50.3584 27.4502 50.5375 27.4275 50.7054 27.4728C50.8734 27.5182 51.0167 27.6279 51.1043 27.7782L60.2276 43.6766C60.3133 43.8274 60.3361 44.006 60.291 44.1736C60.2459 44.3412 60.1366 44.4842 59.9867 44.5717L55.6744 47.0444C55.5231 47.1302 55.3441 47.153 55.1762 47.1078C55.0083 47.0626 54.8649 46.953 54.7771 46.8028L45.6525 30.9045C45.5668 30.7536 45.5439 30.575 45.589 30.4074C45.6341 30.2398 45.7435 30.0968 45.8934 30.0093L50.2071 27.5359ZM44.9673 33.0997L43.677 33.8357L51.2487 47.0254L52.5375 46.2866L44.9673 33.0997ZM27.9117 56.6564C27.8863 56.5099 27.832 56.37 27.7522 56.2445C27.6724 56.1191 27.5685 56.0107 27.4466 55.9256C27.3247 55.8405 27.1872 55.7804 27.042 55.7487C26.8967 55.717 26.7466 55.7143 26.6004 55.7408C25.9327 55.869 24.8826 57.7227 24.4411 58.3854C24.3168 58.5721 24.2497 58.7911 24.248 59.0154C24.2462 59.2397 24.31 59.4596 24.4314 59.6482C24.5528 59.8368 24.7266 59.9859 24.9314 60.0772C25.1363 60.1685 25.3634 60.1981 25.5848 60.1623C25.8696 60.1084 26.1215 59.9441 26.2856 59.7052L27.7441 57.5177C27.9114 57.2632 27.9716 56.953 27.9117 56.6543V56.6564ZM25.1848 54.3689C24.2424 55.6972 23.2832 57.0128 22.3571 58.353C22.1937 58.5668 21.9595 58.7155 21.6965 58.7724C21.4335 58.8293 21.1589 58.7908 20.9217 58.6637C20.6845 58.5367 20.5002 58.3293 20.4019 58.0789C20.3036 57.8284 20.2977 57.5511 20.3851 57.2966L23.3431 53.0378C23.4305 52.9169 23.5408 52.8144 23.6679 52.7361C23.7949 52.6578 23.9361 52.6053 24.0834 52.5816C24.2307 52.5579 24.3812 52.5635 24.5264 52.5979C24.6716 52.6324 24.8085 52.6951 24.9295 52.7825C25.0504 52.8699 25.1529 52.9803 25.2312 53.1073C25.3095 53.2343 25.362 53.3755 25.3857 53.5228C25.4094 53.6702 25.4038 53.8207 25.3694 53.9659C25.3349 54.111 25.2722 54.248 25.1848 54.3689ZM16.7426 55.6366C16.5799 55.8849 16.5212 56.1872 16.579 56.4784C16.6368 56.7696 16.8067 57.0265 17.0519 57.1938C17.2972 57.361 17.5983 57.4254 17.8905 57.373C18.1827 57.3206 18.4427 57.1556 18.6146 56.9135C19.9323 54.9823 21.2359 53.0399 22.5726 51.1137C22.7353 50.8654 22.794 50.5631 22.7362 50.2719C22.6783 49.9807 22.5085 49.7239 22.2633 49.5566C22.018 49.3893 21.7169 49.3249 21.4247 49.3774C21.1324 49.4298 20.8725 49.5948 20.7006 49.8369L16.7426 55.6366ZM45.4729 49.8615C45.947 49.7541 46.3927 49.5472 46.7808 49.2544C47.0292 48.9558 47.254 48.6384 47.4534 48.3051C47.8847 47.6096 48.3716 46.9502 48.9091 46.3331L43.0868 36.1915C41.9539 36.1421 40.8363 35.9109 39.7767 35.5069C37.2582 34.6893 35.7327 34.709 33.1657 34.6238C31.3934 34.5165 29.6163 34.5165 27.8441 34.6238C27.4941 34.6128 27.1467 34.6869 26.8316 34.8396C26.5165 34.9923 26.2431 35.2191 26.0348 35.5006C24.6066 37.5676 23.6023 39.5072 22.0409 41.6405C21.9091 41.8215 21.8335 42.0373 21.8235 42.261C21.8135 42.4847 21.8695 42.7064 21.9846 42.8985C22.0997 43.0906 22.2688 43.2445 22.4708 43.3412C22.6728 43.4378 22.8987 43.4729 23.1205 43.442C23.4038 43.3997 23.6601 43.2505 23.8368 43.0251C24.7798 41.7032 25.7609 40.3939 26.7208 39.0811C27.6209 37.8508 29.2041 37.7824 30.6373 37.8332C30.8602 37.841 31.0709 37.9371 31.223 38.1003C31.3751 38.2634 31.4561 38.4804 31.4483 38.7033C31.4404 38.9262 31.3443 39.1369 31.1812 39.289C31.018 39.4411 30.8011 39.5221 30.5781 39.5143C30.226 39.5009 29.8809 39.4974 29.5654 39.5143C34.8735 41.8328 40.4444 46.3099 45.4729 49.8615ZM13.2247 50.806C12.943 49.7552 12.669 48.6354 12.0676 48.1163C11.8708 48.4338 11.5586 48.6626 11.1966 48.7546C10.8346 48.8465 10.451 48.7945 10.1266 48.6093L8.62085 47.7487C8.29452 48.2513 7.7884 48.6101 7.20614 48.7516C6.62388 48.8931 6.00953 48.8067 5.48892 48.51L1.17521 46.0352C0.63766 45.7254 0.24463 45.2153 0.0820391 44.6166C-0.0805514 44.0178 0.000523973 43.379 0.307541 42.8399L9.43288 26.9408C9.74284 26.403 10.2531 26.0098 10.8522 25.8472C11.4512 25.6846 12.0903 25.7658 12.6296 26.0731L16.9433 28.5458C17.4624 28.8452 17.8474 29.3317 18.0195 29.9057C18.1915 30.4798 18.1376 31.0978 17.8687 31.6334L19.3724 32.4954C19.7031 32.6854 19.945 32.9988 20.0451 33.3669C20.1452 33.7349 20.0952 34.1277 19.9062 34.459L19.7372 34.7548C20.9415 35.7027 21.9641 35.3886 23.5966 36.1584C23.9382 35.6147 24.2854 35.0766 24.653 34.5435C24.9935 34.0611 25.4425 33.6654 25.9638 33.3883C26.4852 33.1112 27.0644 32.9605 27.6547 32.9483C29.7167 32.8321 31.7838 32.8366 33.8453 32.9617C36.0339 32.9157 38.215 33.2339 40.2993 33.9033C40.874 34.0899 41.4966 34.278 42.06 34.4026C41.8912 34.0731 41.8556 33.6914 41.9605 33.3364C42.0653 32.9814 42.3027 32.6803 42.6234 32.4954L44.1278 31.6334C43.8589 31.0978 43.8051 30.4796 43.9773 29.9056C44.1495 29.3316 44.5346 28.8451 45.0539 28.5458L49.3669 26.0731C49.9062 25.7658 50.5453 25.6846 51.1443 25.8472C51.7434 26.0098 52.2536 26.403 52.5636 26.9408L61.6925 42.8399C61.9995 43.379 62.0806 44.0178 61.918 44.6166C61.7554 45.2153 61.3623 45.7254 60.8248 46.0352L56.5111 48.5079C55.9907 48.8048 55.3765 48.8915 54.7943 48.7504C54.2121 48.6093 53.7058 48.2509 53.3792 47.7487L51.8734 48.6121C51.5421 48.8012 51.1493 48.8513 50.7811 48.7514C50.413 48.6515 50.0994 48.4097 49.9092 48.079L49.7979 47.8853C49.1949 48.8121 48.542 49.7055 47.8421 50.5616C47.6276 50.7388 47.3954 50.8933 47.1491 51.0229L47.3407 51.1518C47.8748 51.5131 48.2688 52.0467 48.4568 52.6636C48.6449 53.2804 48.6156 53.9431 48.3739 54.5409C48.1323 55.1388 47.6928 55.6356 47.1289 55.9485C46.565 56.2613 45.9109 56.3713 45.2757 56.2599C45.2152 56.996 44.8681 57.6788 44.309 58.1615C43.75 58.6441 43.0238 58.8879 42.2868 58.8404C42.274 59.3502 42.1233 59.847 41.8508 60.2781C41.5782 60.7091 41.194 61.0582 40.7388 61.2883C40.2837 61.5184 39.7747 61.6209 39.266 61.5848C38.7573 61.5487 38.2679 61.3755 37.8498 61.0835C37.7638 61.5392 37.5669 61.9668 37.2765 62.3283C36.986 62.6899 36.611 62.9743 36.1845 63.1565C35.758 63.3387 35.2932 63.413 34.8312 63.3729C34.3692 63.3328 33.9241 63.1795 33.5354 62.9266L31.2817 61.454C30.3957 60.7497 29.1034 60.5194 28.0822 60.0454L27.6695 60.6645C27.3839 61.077 26.9924 61.405 26.5362 61.6139C26.08 61.8228 25.576 61.9049 25.0771 61.8517C24.5782 61.7984 24.1028 61.6117 23.701 61.3112C23.2992 61.0107 22.9858 60.6075 22.7937 60.144C22.4534 60.327 22.0788 60.4378 21.6937 60.4695C21.3085 60.5011 20.9209 60.4529 20.5552 60.3279C20.1895 60.2029 19.8536 60.0038 19.5683 59.743C19.2831 59.4822 19.0548 59.1653 18.8977 58.8122C18.4465 59.0271 17.9463 59.1183 17.4484 59.0764C16.9504 59.0346 16.4725 58.8612 16.0635 58.5739C15.6545 58.2867 15.3292 57.896 15.1209 57.4417C14.9125 56.9875 14.8286 56.4861 14.8777 55.9888C14.382 55.9523 13.9046 55.7868 13.4928 55.5086C13.0809 55.2305 12.7491 54.8494 12.5302 54.4033C12.3113 53.9571 12.213 53.4615 12.245 52.9656C12.277 52.4696 12.4382 51.9907 12.7127 51.5764L13.2247 50.8088V50.806ZM14.11 52.5096C14.5699 51.8194 15.546 50.0038 16.2693 49.8651C16.4907 49.8293 16.7178 49.8588 16.9227 49.9502C17.1275 50.0415 17.3013 50.1906 17.4227 50.3792C17.5441 50.5678 17.6079 50.7877 17.6062 51.012C17.6044 51.2363 17.5373 51.4552 17.4131 51.6419L15.8418 53.9661C15.6392 54.1617 15.3713 54.2753 15.0899 54.2849C14.8084 54.2944 14.5334 54.1993 14.318 54.0179C14.1026 53.8365 13.9621 53.5817 13.9237 53.3027C13.8853 53.0237 13.9517 52.7404 14.11 52.5075V52.5096ZM12.9191 46.6338C13.6851 47.2377 14.2268 48.0807 14.4579 49.0284C14.7547 48.7166 15.1195 48.4776 15.5239 48.3302C15.9284 48.1828 16.3614 48.131 16.7892 48.1787C17.217 48.2265 17.6279 48.3725 17.9899 48.6054C18.3519 48.8383 18.6551 49.1518 18.8758 49.5214L19.3104 48.8875C19.6703 48.3626 20.1973 47.975 20.8057 47.788C21.414 47.6009 22.0678 47.6253 22.6604 47.8572C23.2531 48.0892 23.7498 48.515 24.0695 49.0653C24.3893 49.6155 24.5133 50.2579 24.4213 50.8877C24.8067 50.9097 25.1834 51.0108 25.5281 51.1845C25.8728 51.3583 26.1782 51.601 26.4251 51.8976C26.6721 52.1943 26.8555 52.5385 26.9639 52.909C27.0723 53.2795 27.1034 53.6683 27.0553 54.0513C27.5425 54.1013 28.0086 54.276 28.4085 54.5587C28.8084 54.8414 29.1287 55.2224 29.3384 55.6649C29.5481 56.1075 29.6401 56.5966 29.6056 57.0852C29.5711 57.5737 29.4112 58.045 29.1414 58.4537L29.0308 58.6192C29.2534 58.7101 29.5076 58.7988 29.7724 58.8918C30.6791 59.1577 31.5357 59.5713 32.3078 60.1158L34.451 61.5166C34.5759 61.6066 34.7183 61.6696 34.8689 61.7016C35.0195 61.7337 35.1752 61.734 35.3259 61.7027C35.4767 61.6713 35.6193 61.609 35.7447 61.5196C35.8701 61.4301 35.9755 61.3156 36.0543 61.1833C36.133 61.051 36.1834 60.9037 36.2022 60.7509C36.221 60.598 36.2078 60.4429 36.1635 60.2955C36.1191 60.148 36.0446 60.0114 35.9446 59.8942C35.8447 59.7771 35.7214 59.682 35.5827 59.6151L31.8268 57.186C31.7286 57.1286 31.6431 57.0518 31.5755 56.9604C31.5078 56.8689 31.4595 56.7647 31.4332 56.654C31.407 56.5433 31.4036 56.4284 31.423 56.3164C31.4425 56.2043 31.4845 56.0973 31.5465 56.002C31.6085 55.9066 31.6892 55.8248 31.7837 55.7615C31.8782 55.6982 31.9846 55.6548 32.0964 55.6338C32.2082 55.6128 32.3231 55.6147 32.4341 55.6394C32.5452 55.6641 32.65 55.7111 32.7424 55.7775C34.7716 57.0921 36.8 58.4049 38.8274 59.7158C39.0136 59.8419 39.233 59.91 39.4579 59.9112C39.6829 59.9124 39.9031 59.8468 40.0906 59.7227C40.2782 59.5986 40.4247 59.4215 40.5115 59.214C40.5983 59.0066 40.6215 58.778 40.5782 58.5573C40.5218 58.2659 40.3528 58.0085 40.1077 57.841L33.4227 53.3681C33.325 53.3094 33.2403 53.2313 33.1737 53.1388C33.1071 53.0463 33.06 52.9412 33.0353 52.8299C33.0106 52.7186 33.0087 52.6035 33.0299 52.4914C33.0511 52.3794 33.0948 52.2729 33.1584 52.1783C33.222 52.0837 33.3042 52.003 33.4 51.9411C33.4958 51.8793 33.6031 51.8376 33.7155 51.8185C33.8279 51.7994 33.943 51.8034 34.0538 51.8302C34.1646 51.857 34.2688 51.906 34.3601 51.9744L41.8353 56.9747C42.0845 57.1428 42.3902 57.2051 42.6853 57.1478C42.9804 57.0904 43.2406 56.9183 43.4087 56.6691C43.5768 56.4199 43.639 56.1142 43.5817 55.8191C43.5244 55.524 43.3522 55.2638 43.103 55.0957L36.7258 50.825C36.5412 50.7006 36.4135 50.508 36.3706 50.2896C36.3277 50.0712 36.3732 49.8446 36.4971 49.6597C36.621 49.4747 36.8132 49.3465 37.0315 49.303C37.2498 49.2595 37.4765 49.3043 37.6618 49.4277L45.1377 54.4281C45.3242 54.5517 45.5431 54.6174 45.7668 54.6171C45.9905 54.6167 46.2092 54.5502 46.3953 54.426C46.5813 54.3017 46.7266 54.1253 46.8127 53.9188C46.8988 53.7123 46.922 53.4849 46.8794 53.2653C46.8513 53.1198 46.7948 52.9813 46.7129 52.8577C46.6311 52.7342 46.5256 52.6281 46.4026 52.5455C40.5169 48.6016 33.777 42.8124 27.7138 40.5728L25.2094 44.0019C24.7583 44.5856 24.0962 44.969 23.3654 45.0697C22.6347 45.1705 21.8935 44.9806 21.3012 44.5409C20.709 44.1012 20.3128 43.4467 20.1979 42.718C20.0829 41.9893 20.2584 41.2446 20.6865 40.6439C21.4507 39.5995 22.0888 38.5903 22.7008 37.6022C21.3134 37.0289 20.2929 37.25 18.8927 36.226L12.9191 46.6338Z" fill="#5B8265"/>
</svg>
