<svg width="70" height="60" viewBox="0 0 70 60" fill="none" xmlns="http://www.w3.org/2000/svg">
<path d="M62.4689 0H6.94099C3.11351 0 0 3.10542 0 6.92297V43.8454C0 47.663 3.11351 50.7684 6.94099 50.7684H27.439L26.0536 56.2953C25.5482 58.1094 27.0656 60.0499 28.9531 59.999L40.4569 59.999C42.3432 60.0497 43.863 58.1095 43.3564 56.2952L41.9709 50.7684H62.469C66.2964 50.7684 69.41 47.663 69.41 43.8454V6.92297C69.41 3.10542 66.2964 0 62.4689 0ZM40.457 57.6914H28.953C28.4583 57.6443 28.2254 57.3434 28.2983 56.8547L29.824 50.7684H39.5859L41.1116 56.8547C41.1887 57.3424 40.9471 57.6453 40.457 57.6914ZM67.0963 43.8454C67.0963 46.3903 65.0204 48.4608 62.4689 48.4608H40.4891C33.2148 48.4624 14.4345 48.4595 6.94099 48.4608C4.38952 48.4608 2.31366 46.3903 2.31366 43.8454V6.92297C2.31366 4.37812 4.38952 2.30765 6.94099 2.30765H62.4689C65.0204 2.30765 67.0963 4.37812 67.0963 6.92297V43.8454Z" fill="#5B8265"/>
<path d="M21.9797 4.61493H6.94092C5.6649 4.61493 4.62726 5.64988 4.62726 6.92258V43.8451C4.62726 45.1178 5.6649 46.1527 6.94092 46.1527H21.9797C23.2558 46.1527 24.2934 45.1178 24.2934 43.8451V6.92258C24.2934 5.64988 23.2558 4.61493 21.9797 4.61493ZM21.9797 43.8451L6.94092 43.8467V6.92258H21.9797V43.8451Z" fill="#5B8265"/>
<path d="M9.25467 11.538H19.6662C21.1843 11.5129 21.1885 9.25619 19.6662 9.23034H9.25467C7.73731 9.25512 7.73173 11.5121 9.25467 11.538Z" fill="#5B8265"/>
<path d="M9.25467 16.1534H19.6662C21.1843 16.1283 21.1885 13.8716 19.6662 13.8458H9.25467C7.73731 13.8705 7.73173 16.1275 9.25467 16.1534Z" fill="#5B8265"/>
<path d="M9.25467 20.7688H19.6662C21.1843 20.7437 21.1885 18.487 19.6662 18.4612H9.25467C7.73731 18.4859 7.73173 20.7429 9.25467 20.7688Z" fill="#5B8265"/>
<path d="M9.25467 25.3842H19.6662C21.1843 25.3592 21.1885 23.1024 19.6662 23.0766H9.25467C7.73731 23.1014 7.73173 25.3583 9.25467 25.3842Z" fill="#5B8265"/>
<path d="M9.25467 29.9992H19.6662C21.1843 29.9741 21.1885 27.7174 19.6662 27.6915H9.25467C7.73731 27.7163 7.73173 29.9732 9.25467 29.9992Z" fill="#5B8265"/>
<path d="M9.25467 34.6146H19.6662C21.1843 34.5895 21.1885 32.3328 19.6662 32.3069H9.25467C7.73731 32.3317 7.73173 34.5887 9.25467 34.6146Z" fill="#5B8265"/>
<path d="M61.3121 4.61493H30.0776C28.1639 4.61493 26.6071 6.16763 26.6071 8.07641V31.153C26.6071 33.0617 28.1639 34.6144 30.0776 34.6144H61.3121C63.2259 34.6144 64.7826 33.0617 64.7826 31.153V8.07641C64.7826 6.16763 63.2259 4.61493 61.3121 4.61493ZM62.4689 31.153C62.4689 31.789 61.9498 32.3068 61.3121 32.3068H30.0776C29.4399 32.3068 28.9208 31.789 28.9208 31.153V8.07641C28.9208 7.44034 29.4399 6.92258 30.0776 6.92258H61.3121C61.9498 6.92258 62.4689 7.44034 62.4689 8.07641V31.153Z" fill="#5B8265"/>
<path d="M37.0186 19.6151H33.5481C32.272 19.6151 31.2344 20.6501 31.2344 21.9228V27.6919C31.2344 28.9646 32.272 29.9996 33.5481 29.9996H37.0186C38.2946 29.9996 39.3322 28.9646 39.3322 27.6919V21.9228C39.3322 20.6501 38.2946 19.6151 37.0186 19.6151ZM37.0186 27.6919L33.5481 27.6936V21.9228H37.0186V27.6919Z" fill="#5B8265"/>
<path d="M47.4302 23.0766H43.9597C42.6837 23.0766 41.646 24.1115 41.646 25.3842V27.6919C41.646 28.9646 42.6837 29.9995 43.9597 29.9995H47.4302C48.7062 29.9995 49.7439 28.9646 49.7439 27.6919V25.3842C49.7439 24.1115 48.7062 23.0766 47.4302 23.0766ZM47.4302 27.6919L43.9597 27.6936V25.3842H47.4302V27.6919Z" fill="#5B8265"/>
<path d="M49.7427 8.45685L44.1619 16.7286L36.3906 12.4902C35.0488 11.7866 33.9554 13.763 35.2801 14.515L43.9772 19.2582C44.4936 19.5416 45.1566 19.3886 45.4922 18.8897L51.6621 9.74476C52.4987 8.49325 50.5947 7.2052 49.7427 8.45685Z" fill="#5B8265"/>
<path d="M57.8416 10.3843H54.3711C53.0951 10.3843 52.0574 11.4193 52.0574 12.692V27.6917C52.0574 28.9644 53.0951 29.9994 54.3711 29.9994H57.8416C59.1176 29.9994 60.1552 28.9644 60.1552 27.6917V12.692C60.1552 11.4193 59.1176 10.3843 57.8416 10.3843ZM57.8416 27.6917L54.3711 27.6934V12.692H57.8416V27.6917Z" fill="#5B8265"/>
<path d="M27.7639 39.23H49.7437C50.3826 39.23 50.9006 38.7134 50.9006 38.0762C50.9006 37.439 50.3826 36.9223 49.7437 36.9223H27.7639C26.2504 36.9459 26.2378 39.2037 27.7639 39.23Z" fill="#5B8265"/>
<path d="M62.469 41.5377H27.7641C26.2553 41.56 26.2342 43.8187 27.7641 43.8454H62.469C63.9779 43.8231 63.999 41.5644 62.469 41.5377Z" fill="#5B8265"/>
</svg>
