<svg width="62" height="62" viewBox="0 0 62 62" fill="none" xmlns="http://www.w3.org/2000/svg">
<path d="M41 42C36.589 42 33 45.589 33 50C33 54.411 36.589 58 41 58C45.411 58 49 54.411 49 50C49 45.589 45.411 42 41 42ZM41 56C37.691 56 35 53.309 35 50C35 46.691 37.691 44 41 44C44.309 44 47 46.691 47 50C47 53.309 44.309 56 41 56Z" fill="#5B8265"/>
<path d="M41 46C38.794 46 37 47.794 37 50C37 52.206 38.794 54 41 54C43.206 54 45 52.206 45 50C45 47.794 43.206 46 41 46ZM41 52C39.897 52 39 51.103 39 50C39 48.897 39.897 48 41 48C42.103 48 43 48.897 43 50C43 51.103 42.103 52 41 52Z" fill="#5B8265"/>
<path d="M53 37V39H62V30H60V35.586L55.433 31.019C55.785 30.424 56 29.74 56 29C56 26.794 54.206 25 52 25C49.794 25 48 26.794 48 29C48 29.74 48.215 30.424 48.567 31.019L41.572 38.014C41.381 38.01 41.191 38 41 38C40.669 38 40.339 38.011 40.01 38.024L31.247 13.196C33.475 12.023 35 9.688 35 7C35 3.14 31.86 0 28 0C24.14 0 21 3.14 21 7C21 9.377 22.193 11.478 24.01 12.744L19.836 21.091C19.566 21.033 19.287 21 19 21C16.794 21 15 22.794 15 25C15 25.116 15.025 25.226 15.034 25.339L7.452 28.015C6.76 26.817 5.48 26 4 26C1.794 26 0 27.794 0 30C0 32.206 1.794 34 4 34C6.206 34 8 32.206 8 30C8 29.981 7.995 29.964 7.994 29.945L15.682 27.232C16.402 28.297 17.62 29 19 29C21.206 29 23 27.206 23 25C23 23.8 22.458 22.734 21.618 22L25.798 13.64C26.492 13.87 27.23 14 28 14C28.466 14 28.921 13.952 29.362 13.865L37.947 38.19C34.401 38.617 31.024 39.78 27.999 41.613V32H19.999V60H17.999V38H9.999V60H8V44H0V62H41C47.716 62 54.029 59.385 58.778 54.636L61 52.414C61.645 51.769 62 50.912 62 50C62 49.088 61.645 48.23 61 47.586L58.778 45.364C54.793 41.379 49.706 38.904 44.205 38.208L49.98 32.433C50.576 32.785 51.26 33 52 33C52.74 33 53.424 32.785 54.019 32.433L58.586 37H53ZM4 32C2.897 32 2 31.103 2 30C2 28.897 2.897 28 4 28C5.103 28 6 28.897 6 30C6 31.103 5.103 32 4 32ZM19 27C17.897 27 17 26.103 17 25C17 23.897 17.897 23 19 23C20.103 23 21 23.897 21 25C21 26.103 20.103 27 19 27ZM23 7C23 4.243 25.243 2 28 2C30.757 2 33 4.243 33 7C33 9.757 30.757 12 28 12C25.243 12 23 9.757 23 7ZM6 60H2V46H6V60ZM32.39 41.66C30.296 43.821 29 46.76 29 50C29 53.24 30.296 56.179 32.39 58.34C29.522 57.191 26.886 55.472 24.636 53.222L22.414 51C22.151 50.737 22 50.372 22 50C22 49.628 22.151 49.263 22.414 49L24.636 46.778C26.886 44.528 29.522 42.809 32.39 41.66ZM26 34V42.961C25.026 43.688 24.097 44.49 23.222 45.365L22 46.586V34H26ZM12 40H16V60H12V40ZM22 60V53.414L23.222 54.636C25.537 56.951 28.227 58.755 31.151 60H22ZM31 50C31 44.486 35.486 40 41 40C46.514 40 51 44.486 51 50C51 55.514 46.514 60 41 60C35.486 60 31 55.514 31 50ZM59.586 49C59.849 49.263 60 49.628 60 50C60 50.372 59.849 50.737 59.586 51L57.364 53.222C55.114 55.472 52.477 57.191 49.61 58.34C51.704 56.179 53 53.24 53 50C53 46.76 51.704 43.821 49.61 41.66C52.478 42.809 55.114 44.528 57.364 46.778L59.586 49ZM52 31C50.897 31 50 30.103 50 29C50 27.897 50.897 27 52 27C53.103 27 54 27.897 54 29C54 30.103 53.103 31 52 31Z" fill="#5B8265"/>
<path d="M43 19H44.586L47.879 22.293C48.335 22.749 48.941 23 49.586 23C50.917 23 52 21.917 52 20.586V19H55C56.654 19 58 17.654 58 16V8C58 6.346 56.654 5 55 5H43C41.346 5 40 6.346 40 8V16C40 17.654 41.346 19 43 19ZM42 8C42 7.449 42.449 7 43 7H55C55.551 7 56 7.449 56 8V16C56 16.551 55.551 17 55 17H50V20.586C50 20.924 49.531 21.118 49.293 20.879L45.414 17H43C42.449 17 42 16.551 42 16V8Z" fill="#5B8265"/>
<path d="M54 9H44V11H54V9Z" fill="#5B8265"/>
<path d="M54 13H52V15H54V13Z" fill="#5B8265"/>
<path d="M50 13H44V15H50V13Z" fill="#5B8265"/>
</svg>
