<svg width="62" height="67" viewBox="0 0 62 67" fill="none" xmlns="http://www.w3.org/2000/svg">
<path d="M32.6385 13.3688C33.5242 15.3063 35.4839 16.6017 37.6429 16.6017C40.6987 16.6017 43.1788 14.1216 43.1788 11.0658C43.1788 8.01002 40.6987 5.52994 37.6429 5.52994C37.2333 5.52994 36.8458 5.5853 36.4693 5.6628C36.1372 5.5853 35.7829 5.52994 35.4286 5.52994C32.9817 5.52994 30.9999 7.51179 30.9999 9.95865C30.9999 11.3426 31.6531 12.5605 32.6385 13.3688ZM40.9645 11.0658C40.9645 12.8927 39.4698 14.3874 37.6429 14.3874C37.2776 14.3874 36.9233 14.3209 36.5911 14.2102C38.4622 13.6898 39.8573 11.9959 39.8573 9.95865C39.8573 9.39399 39.7355 8.85147 39.5473 8.35324C40.3998 8.95112 40.9645 9.94758 40.9645 11.0658ZM35.4286 7.74429C36.6465 7.74429 37.6429 8.74075 37.6429 9.95865C37.6429 11.1765 36.6465 12.173 35.4286 12.173C34.2107 12.173 33.2142 11.1765 33.2142 9.95865C33.2142 8.74075 34.2107 7.74429 35.4286 7.74429Z" fill="#5B8265"/>
<path d="M55.3579 31.4933V7.57823C55.3579 5.83996 53.9075 4.42277 52.136 4.42277H43.5554L42.4814 1.97591C41.7618 0.315145 39.8131 -0.448807 38.1524 0.270858L28.5864 4.42277H9.86399C8.09251 4.42277 6.6421 5.83996 6.6421 7.57823V13.9666L1.98089 15.9928C1.17265 16.3471 0.55263 16.9892 0.231549 17.8085C-0.0895326 18.6279 -0.0784609 19.5247 0.275836 20.3329L6.6421 34.9366V58.8516C6.6421 60.5899 8.09251 62.007 9.86399 62.007H18.4446L19.5186 64.4539C20.0611 65.694 21.2679 66.4247 22.5412 66.4247C22.973 66.4247 23.4269 66.3361 23.8476 66.1479L33.4136 61.996H52.136C53.9075 61.996 55.3579 60.5788 55.3579 58.8405V52.4521L60.0191 50.426C60.8274 50.0717 61.4474 49.4295 61.7685 48.6102C62.0895 47.7909 62.0785 46.8941 61.7242 46.0858L55.3579 31.4822V31.4933ZM52.136 6.63713C52.6896 6.63713 53.1435 7.05785 53.1435 7.57823V26.4113L44.5186 6.63713H52.136ZM8.85646 7.57823C8.85646 7.05785 9.3104 6.63713 9.86399 6.63713H23.4933L8.85646 13.0034V7.57823ZM9.86399 59.7816C9.3104 59.7816 8.85646 59.3609 8.85646 58.8405V40.0074L17.4814 59.7816H9.86399ZM53.1435 58.8405C53.1435 59.3609 52.6896 59.7816 52.136 59.7816H38.5067L53.1435 53.4154V58.8405ZM59.7091 47.802C59.5984 48.0677 59.3991 48.2781 59.1334 48.3998L22.9619 64.1218C22.4194 64.3543 21.7883 64.1107 21.5447 63.5682L2.30197 19.4361C2.19125 19.1704 2.18018 18.8825 2.2909 18.6057C2.40162 18.34 2.60091 18.1296 2.86663 18.0078L39.0381 2.29699C39.182 2.24163 39.326 2.20842 39.4699 2.20842C39.8906 2.20842 40.2781 2.452 40.4553 2.85058L59.698 46.9716C59.8088 47.2373 59.8198 47.5252 59.7091 47.802Z" fill="#5B8265"/>
<path d="M29.8617 11.0399L13.6429 18.0819L14.5248 20.1131L30.7436 13.071L29.8617 11.0399Z" fill="#5B8265"/>
<path d="M34.5517 16.1537L10.2406 26.7144L11.1228 28.7454L35.434 18.1848L34.5517 16.1537Z" fill="#5B8265"/>
<path d="M43.009 19.6307L12.8712 32.7288L13.7538 34.7596L43.8916 21.6616L43.009 19.6307Z" fill="#5B8265"/>
<path d="M45.6307 25.6488L15.4929 38.7469L16.3755 40.7777L46.5133 27.6797L45.6307 25.6488Z" fill="#5B8265"/>
<path d="M48.2524 31.6556L18.1146 44.7536L18.9972 46.7845L49.135 33.6864L48.2524 31.6556Z" fill="#5B8265"/>
<path d="M50.8787 37.6834L20.7409 50.7815L21.6235 52.8123L51.7614 39.7143L50.8787 37.6834Z" fill="#5B8265"/>
<path d="M53.4962 43.7036L23.3561 56.7963L24.2384 58.8274L54.3785 45.7346L53.4962 43.7036Z" fill="#5B8265"/>
</svg>
