<svg width="59" height="60" viewBox="0 0 59 60" fill="none" xmlns="http://www.w3.org/2000/svg">
<path d="M36.4114 23.1983C35.9057 23.1983 35.5037 22.7974 35.5037 22.2931C35.5037 21.7888 35.9057 21.3879 36.4114 21.3879H50.5974C51.1031 21.3879 51.5051 21.7888 51.5051 22.2931C51.5051 22.7974 51.1031 23.1983 50.5974 23.1983H36.4114ZM36.4114 19.9138C35.9057 19.9138 35.5037 19.5129 35.5037 19.0086C35.5037 18.5043 35.9057 18.1034 36.4114 18.1034H43.1802C43.6859 18.1034 44.0879 18.5043 44.0879 19.0086C44.0879 19.5129 43.6859 19.9138 43.1802 19.9138H36.4114ZM38.5769 6.32328L39.5106 8.31466L41.715 8.58621C42.5059 8.68965 42.7782 9.64655 42.1818 10.1767L40.6128 11.6509L41.0277 13.8233C41.1703 14.5733 40.3664 15.1552 39.7051 14.7931L37.76 13.7328L35.8149 14.7931C35.1407 15.1552 34.3497 14.5733 34.4923 13.8233L34.9073 11.6509L33.2864 10.1379C32.7288 9.60776 33.04 8.67672 33.7921 8.58621L35.9965 8.31466L36.9431 6.32328C37.2543 5.625 38.2527 5.63793 38.5769 6.32328ZM38.0842 9.5431L37.747 8.8319L37.4358 9.47845C37.3191 9.78879 37.0468 10.0216 36.6967 10.0603L35.9187 10.1509C36.9171 11.0948 36.8782 10.9267 36.6189 12.2845C37.8248 11.625 37.6563 11.6121 38.8622 12.2845L38.7196 11.5086C38.6677 11.2112 38.7585 10.9009 38.9919 10.681L39.5624 10.1379L38.7844 10.0474C38.4991 10.0216 38.2268 9.84052 38.0842 9.5431ZM49.6767 6.32328L50.6233 8.31466L52.8277 8.58621C53.6187 8.68965 53.891 9.64655 53.2945 10.1767L51.7255 11.6509L52.1404 13.8233C52.2831 14.5733 51.4791 15.1552 50.8178 14.7931L48.8727 13.7328L46.9277 14.7931C46.2534 15.1552 45.4624 14.5733 45.6051 13.8233L46.02 11.6509L44.3991 10.1379C43.8415 9.60776 44.1528 8.67672 44.9048 8.58621L47.1092 8.31466L48.0558 6.32328C48.367 5.625 49.3525 5.63793 49.6767 6.32328ZM49.184 9.5431L48.8468 8.8319L48.5356 9.47845C48.4189 9.78879 48.1466 10.0216 47.7965 10.0603L47.0185 10.1509C48.0169 11.0948 47.978 10.9267 47.7187 12.2845C48.9246 11.625 48.7561 11.6121 49.962 12.2845L49.8193 11.5086C49.7675 11.2112 49.8582 10.9009 50.0917 10.681L50.6622 10.1379L49.8842 10.0474C49.5989 10.0216 49.3266 9.84052 49.184 9.5431ZM10.5552 34.7069L8.01363 32.1724C7.68945 31.8491 7.14484 31.8491 6.82066 32.1724L2.06176 36.9181C1.73758 37.2414 1.73758 37.7845 2.06176 38.1078L4.6033 40.6422C4.92747 40.9655 5.47209 40.9655 5.79626 40.6422L10.5552 35.8965C10.8793 35.5733 10.8793 35.0431 10.5552 34.7069ZM9.95868 31.5647L11.2165 32.819L13.1875 30.8534C12.7336 30.4655 12.3187 30.0517 11.9297 29.5991L9.95868 31.5647ZM12.3835 34.2155C12.8244 35.2112 12.6299 36.3879 11.8389 37.1767L7.08 41.9224C6.04264 42.9569 4.35692 42.9569 3.31956 41.9224L0.778022 39.3879C-0.259341 38.3535 -0.259341 36.6724 0.778022 35.6379L5.53692 30.9052C6.34088 30.0905 7.57275 29.9095 8.57121 30.3879L10.8404 28.125C7.92286 23.4569 8.63604 17.3922 12.5262 13.5129C14.8732 11.1724 18.1668 9.84052 21.6938 10.0733V6.21983C21.6938 2.80603 24.4947 0 27.931 0H52.7758C56.1991 0 59 2.7931 59 6.21983V21.7112C59 25.125 56.1991 27.9181 52.7758 27.9181H44.0101L43.3747 29.0172L41.1314 32.8836C40.7943 33.4655 39.9125 33.5172 39.5365 32.8319L36.6967 27.9181H31.1338C27.7495 33.6078 20.3064 35.444 14.6527 31.9397L12.3835 34.2155ZM20.9288 15.0517C17.1424 15.0517 14.0822 18.1034 14.0822 21.8793C14.0822 25.6422 17.1424 28.7069 20.9288 28.7069C24.7022 28.7069 27.7754 25.6552 27.7754 21.8793C27.7754 18.1034 24.7152 15.0517 20.9288 15.0517ZM14.8084 15.7759C18.1927 12.4009 23.6648 12.4009 27.0622 15.7759C30.4466 19.1509 30.4466 24.6207 27.0622 27.9957C23.6778 31.3707 18.1927 31.3707 14.8084 27.9957C11.424 24.6207 11.424 19.1509 14.8084 15.7759ZM20.9288 11.8448C15.3789 11.8448 10.8664 16.3319 10.8664 21.8793C10.8664 24.5948 11.9556 27.1164 13.8099 28.9655C17.713 32.8578 24.0798 32.8965 28.0347 28.9655C31.9248 25.0862 31.9897 18.7371 28.0347 14.7802C26.1675 12.9181 23.6259 11.8448 20.9288 11.8448ZM23.5222 10.319C30.5503 11.8836 34.609 19.3448 32.0286 26.1078H37.2284C37.5396 26.1078 37.8508 26.2629 38.0064 26.5603L38.9011 28.1121L40.3534 30.6207L41.8057 28.1121L42.6615 26.6379C42.8042 26.3276 43.1154 26.1078 43.4914 26.1078H52.7758C55.2007 26.1078 57.1976 24.1293 57.1976 21.7112V6.21983C57.1976 3.80172 55.2007 1.81034 52.7758 1.81034H27.944C25.5191 1.81034 23.5222 3.78879 23.5222 6.21983V10.319ZM20.0989 48.7241H16.6367V58.1897H20.0989V48.7241ZM15.729 46.9138H21.0066C21.5123 46.9138 21.9143 47.3147 21.9143 47.819V59.0948C21.9143 59.5991 21.5123 60 21.0066 60H15.729C15.2233 60 14.8213 59.5991 14.8213 59.0948V47.819C14.8213 47.3276 15.2233 46.9138 15.729 46.9138ZM56.4325 59.0948C56.4325 59.5991 56.0306 60 55.5248 60H50.2473C49.7415 60 49.3396 59.5991 49.3396 59.0948V34.1638C49.3396 33.6595 49.7415 33.2586 50.2473 33.2586H55.5248C56.0306 33.2586 56.4325 33.6595 56.4325 34.1638V59.0948ZM54.6171 58.1897V35.069H51.1549V58.1897H54.6171ZM43.1024 41.9095H39.6402V58.1897H43.1024V41.9095ZM38.7325 40.0991H44.0101C44.5158 40.0991 44.9178 40.5 44.9178 41.0043V59.0948C44.9178 59.5991 44.5158 60 44.0101 60H38.7325C38.2268 60 37.8248 59.5991 37.8248 59.0948V41.0043C37.8248 40.5 38.2398 40.0991 38.7325 40.0991ZM28.1385 58.1897H31.6007V35.069H28.1385V58.1897ZM26.3231 59.0948V34.1638C26.3231 33.6595 26.7251 33.2586 27.2308 33.2586H32.5084C33.0141 33.2586 33.416 33.6595 33.416 34.1638V59.0948C33.416 59.5991 33.0141 60 32.5084 60H27.2308C26.7251 60 26.3231 59.5991 26.3231 59.0948Z" fill="#5B8265"/>
</svg>
