<svg width="116" height="116" viewBox="0 0 116 116" fill="none" xmlns="http://www.w3.org/2000/svg">
<path fill-rule="evenodd" clip-rule="evenodd" d="M4.85234 49.7954C2.53275 45.7777 3.92384 40.632 7.95943 38.302L17.7022 32.677C21.7378 30.3471 26.8897 31.7152 29.2093 35.7329L36.2093 47.8572C38.5289 51.8749 37.1378 57.0206 33.1022 59.3506L23.3594 64.9756C19.3238 67.3055 14.1719 65.9374 11.8523 61.9197L4.85234 49.7954ZM10.7594 43.1517C9.41423 43.9284 8.95054 45.6436 9.72374 46.9829L16.7237 59.1072C17.497 60.4465 19.2142 60.9025 20.5594 60.1258L30.3022 54.5008C31.6475 53.7242 32.1111 52.009 31.3379 50.6697L24.3379 38.5454C23.5647 37.2061 21.8475 36.7501 20.5022 37.5267L10.7594 43.1517Z" fill="#78D98F"/>
<path fill-rule="evenodd" clip-rule="evenodd" d="M75.2943 70.5555C77.6139 74.5732 82.7658 75.9413 86.8014 73.6114L101.416 65.1739C105.451 62.8439 106.842 57.6982 104.523 53.6805L96.1227 39.1313C93.8031 35.1137 88.6512 33.7455 84.6156 36.0754L70.0014 44.5129C65.9658 46.8429 64.5747 51.9887 66.8943 56.0063L75.2943 70.5555ZM84.0014 68.7617C82.6562 69.5383 80.9389 69.0823 80.1657 67.743L71.7657 53.1938C70.9925 51.8545 71.4562 50.1394 72.8014 49.3627L87.4156 40.9252C88.7608 40.1485 90.4781 40.6045 91.2513 41.9438L99.6513 56.493C100.425 57.8323 99.9608 59.5475 98.6156 60.3242L84.0014 68.7617Z" fill="#78D98F"/>
<path d="M43.9382 72.4939C45.2834 71.7172 47.0007 72.1734 47.7739 73.5125L51.2739 79.5747L57.3631 76.0591C58.7083 75.2824 60.4257 75.7386 61.1988 77.0777C61.972 78.4169 61.5083 80.1321 60.1631 80.9088L54.0739 84.4244L57.5739 90.4866C58.3471 91.8259 57.8834 93.5411 56.5382 94.3177C55.1929 95.0944 53.4757 94.6384 52.7025 93.2991L49.2025 87.2369L43.1132 90.7526C41.768 91.5292 40.0508 91.0732 39.2775 89.7339C38.5044 88.3948 38.968 86.6795 40.3132 85.9028L46.4025 82.3872L42.9025 76.325C42.1293 74.9859 42.5929 73.2706 43.9382 72.4939Z" fill="#78D98F"/>
<path fill-rule="evenodd" clip-rule="evenodd" d="M26.1596 69.8252C22.124 72.1551 20.7329 77.3009 23.0525 81.3186L38.4525 107.992C40.7721 112.01 45.924 113.378 49.9596 111.048L74.3166 96.9855C78.3522 94.6556 79.7433 89.5098 77.4237 85.4921L62.0237 58.8186C59.7041 54.8009 54.5522 53.4328 50.5166 55.7627L26.1596 69.8252ZM27.9239 78.5061C27.1507 77.1668 27.6144 75.4516 28.9596 74.6749L53.3166 60.6124C54.6618 59.8358 56.3791 60.2918 57.1523 61.6311L72.5523 88.3046C73.3255 89.6439 72.8618 91.3591 71.5166 92.1358L47.1596 106.198C45.8144 106.975 44.0972 106.519 43.3239 105.18L27.9239 78.5061Z" fill="#78D98F"/>
<path fill-rule="evenodd" clip-rule="evenodd" d="M52.5875 48.1008C48.5519 50.4308 43.4 49.0626 41.0804 45.045L34.0804 32.9206C31.7608 28.9029 33.1519 23.7572 37.1875 21.4272L66.4158 4.55225C70.4514 2.2223 75.6033 3.59045 77.9229 7.60811L84.9229 19.7325C87.2425 23.7501 85.8514 28.8959 81.8158 31.2258L52.5875 48.1008ZM45.9518 42.2325C46.725 43.5717 48.4422 44.0278 49.7875 43.2511L79.0158 26.3761C80.3611 25.5994 80.8247 23.8842 80.0515 22.545L73.0515 10.4206C72.2783 9.08139 70.5611 8.62532 69.2158 9.40199L39.9875 26.277C38.6422 27.0537 38.1786 28.7689 38.9518 30.1081L45.9518 42.2325Z" fill="#78D98F"/>
</svg>
